<?xml version="1.0" encoding="utf-8"?>
<svg version="1.1" id="Calque_1" xmlns="http://www.w3.org/2000/svg" xmlns:xlink="http://www.w3.org/1999/xlink" x="0px" y="0px"
	 viewBox="0 0 1251.5 658.7" style="enable-background:new 0 0 1251.5 658.7;" xml:space="preserve">
<style type="text/css">
	.st0{fill:#FFECE7;}
	.st1{opacity:0.52;fill:#FFB29E;}
	.st2{fill:#F99C7B;}
	.st3{fill:#FD9B81;}
	.st4{fill:none;stroke:#FE8261;stroke-width:2.1561;stroke-linecap:round;stroke-linejoin:round;stroke-miterlimit:10;}
	.st5{opacity:0.24;fill:#FFFFFF;}
	.st6{opacity:0.62;fill:#F99C7B;}
	.st7{fill:#FEF0EB;}
	.st8{opacity:0.52;fill:#AC6046;}
	.st9{fill:#603729;}
	.st10{fill:#9A5B46;}
	.st11{fill:none;stroke:#9A5B46;stroke-width:2.1561;stroke-linecap:round;stroke-linejoin:round;stroke-miterlimit:10;}
	.st12{opacity:0.62;fill:#603729;}
	.st13{fill:#EAF8EF;}
	.st14{opacity:0.52;fill:#439363;}
	.st15{fill:#087132;}
	.st16{fill:#439363;}
	.st17{fill:none;stroke:#9DBEA2;stroke-width:2.1561;stroke-linecap:round;stroke-linejoin:round;stroke-miterlimit:10;}
	.st18{opacity:0.62;fill:#439363;}
	.st19{fill:#D97777;}
	.st20{fill:#8F3939;}
	.st21{fill:#680303;}
	.st22{fill:#FFC5C5;}
	.st23{fill:#FFE4CA;}
	.st24{fill:#FFCE9F;}
	.st25{fill:#F6B87C;}
	.st26{fill:#FFF9F3;}
	.st27{fill:#F7B87C;}
	.st28{fill:#404162;}
	.st29{fill:#3A3B59;}
	.st30{fill:#31324B;}
	.st31{fill:#595A88;}
	.st32{fill:none;stroke:#FE8261;stroke-width:5.907;stroke-linecap:round;stroke-linejoin:round;stroke-miterlimit:10;}
	.st33{opacity:0.73;fill:#404162;}
	.st34{fill:#55475E;}
	.st35{fill:#252127;}
</style>
<g>
	<g>
		<path class="st0" d="M652.7,317.5c-4,0-7.6-2.2-9.6-5.7c-0.7-1.2-1.1-2.6-1.3-4l-12-108.6l-7.6,0c-2.8,0-5.1-2.3-5.1-5.1
			c0-0.2,0-0.4,0-0.6c0.3-2.6,2.5-4.5,5.1-4.5h3.1l105.1,0.2h3.1c2.8,0,5.1,2.3,5.1,5.1c0,0.2,0,0.4,0,0.6c-0.3,2.6-2.5,4.5-5,4.5
			H726l-12.4,108.6c-0.2,1.9-1,3.8-2.1,5.3c-2.1,2.8-5.3,4.4-8.7,4.4L652.7,317.5z"/>
		<path class="st1" d="M720.5,206.3l-8.9,81.9c-1.4,13-12.3,22.9-25.4,22.9l-2.3,0l-14.8,0c-0.8,0-1.5,0-2.2-0.1h0
			c-12-1.1-21.7-10.6-23-22.8l-8.6-82c3.8,1.4,7.6,2.7,11.3,3.7c1.7,0.5,3.4,0.9,5.1,1.3h0c2.1,0.5,4.3,0.9,6.4,1.3l0,0
			c1.9,0.3,3.7,0.6,5.6,0.8c2.5,0.3,5,0.5,7.5,0.6c8,0.4,16.1,0,24.3-1.3C703.9,211.3,712.2,209.2,720.5,206.3z"/>
		<path class="st2" d="M640.3,253.6l3.6,34.5c1.4,13,12.3,22.9,25.3,22.9l17.1,0c13,0,24-9.8,25.4-22.9l6.2-57.2
			C691,219.5,672.7,247.1,640.3,253.6z"/>
		<path class="st3" d="M708.7,287.6c0,8.2-14.6,20.1-32.1,20.1c-17.5,0-31.4-11.8-31.4-20.1c0-8.2,13.9-0.7,31.4-0.7
			C694.1,287,708.7,279.4,708.7,287.6z"/>
		<path class="st4" d="M743.4,194.1c0,0.4,0,0.8-0.1,1.2c-0.6,4.9-4.8,8.7-9.8,8.7h-3.4l-11.9,104.4c-0.3,2.9-1.4,5.5-3,7.6
			c-2.9,3.9-7.5,6.3-12.6,6.3l-50-0.1c-5.9,0-11.1-3.3-13.7-8.2c-1-1.8-1.6-3.7-1.8-5.8l-11.5-104.4l-3.4,0c-5.4,0-9.8-4.4-9.8-9.9
			c0-0.4,0-0.8,0.1-1.2c0.6-4.9,4.7-8.7,9.8-8.7h3.1l105.2,0.2h3.1C739,184.2,743.4,188.7,743.4,194.1z"/>
		<path class="st5" d="M666.9,310.9L666.9,310.9c-12-1.1-21.7-10.6-23-22.8l-8.6-82c3.8,1.4,7.6,2.7,11.3,3.7
			c1.7,0.5,3.4,0.9,5.1,1.3h0C651.8,211.1,646.7,283,666.9,310.9z"/>
		<path class="st6" d="M720.9,205.5l-8.9,81.9c-1.4,13-12.3,22.9-25.4,22.9l-2.3,0c12.7-14.4,13.8-53.1,11.6-98.4
			C704.3,210.6,712.6,208.5,720.9,205.5z"/>
	</g>
	<g>
		<path class="st7" d="M796.9,317.5c-4,0-7.6-2.2-9.6-5.7c-0.7-1.2-1.1-2.6-1.3-4l-12-108.6l-7.6,0c-2.8,0-5.1-2.3-5.1-5.1
			c0-0.2,0-0.4,0-0.6c0.3-2.6,2.5-4.5,5.1-4.5h3.1l105.1,0.2h3.1c2.8,0,5.1,2.3,5.1,5.1c0,0.2,0,0.4,0,0.6c-0.3,2.6-2.5,4.5-5,4.5
			h-7.6l-12.4,108.6c-0.2,1.9-1,3.8-2.1,5.3c-2.1,2.8-5.3,4.4-8.7,4.4L796.9,317.5z"/>
		<path class="st8" d="M864.7,206.3l-8.9,81.9c-1.4,13-12.3,22.9-25.4,22.9l-2.3,0l-14.8,0c-0.8,0-1.5,0-2.2-0.1h0
			c-12-1.1-21.7-10.6-23-22.8l-8.6-82c3.8,1.4,7.6,2.7,11.3,3.7c1.7,0.5,3.4,0.9,5.1,1.3h0c2.1,0.5,4.3,0.9,6.4,1.3l0,0
			c1.9,0.3,3.7,0.6,5.6,0.8c2.5,0.3,5,0.5,7.5,0.6c8,0.4,16.1,0,24.3-1.3C848.1,211.3,856.4,209.2,864.7,206.3z"/>
		<path class="st9" d="M784.5,253.6l3.6,34.5c1.4,13,12.3,22.9,25.3,22.9l17.1,0c13,0,24-9.8,25.4-22.9L862,231
			C835.2,219.5,816.9,247.1,784.5,253.6z"/>
		<path class="st10" d="M852.9,287.6c0,8.2-14.6,20.1-32.1,20.1c-17.5,0-31.4-11.8-31.4-20.1c0-8.2,13.9-0.7,31.4-0.7
			C838.3,287,852.9,279.4,852.9,287.6z"/>
		<path class="st11" d="M887.6,194.1c0,0.4,0,0.8-0.1,1.2c-0.6,4.9-4.8,8.7-9.8,8.7h-3.4l-11.9,104.4c-0.3,2.9-1.4,5.5-3,7.6
			c-2.9,3.9-7.5,6.3-12.6,6.3l-50-0.1c-5.9,0-11.1-3.3-13.7-8.2c-1-1.8-1.6-3.7-1.8-5.8l-11.5-104.4l-3.4,0c-5.4,0-9.8-4.4-9.8-9.9
			c0-0.4,0-0.8,0.1-1.2c0.6-4.9,4.7-8.7,9.8-8.7h3.1l105.2,0.2h3.1C883.3,184.2,887.7,188.7,887.6,194.1z"/>
		<path class="st5" d="M811.1,310.9L811.1,310.9c-12-1.1-21.7-10.6-23-22.8l-8.6-82c3.8,1.4,7.6,2.7,11.3,3.7
			c1.7,0.5,3.4,0.9,5.1,1.3h0C796,211.1,790.9,283,811.1,310.9z"/>
		<path class="st12" d="M865.2,205.5l-8.9,81.9c-1.4,13-12.3,22.9-25.4,22.9l-2.3,0c12.7-14.4,13.8-53.1,11.6-98.4
			C848.5,210.6,856.8,208.5,865.2,205.5z"/>
	</g>
	<g>
		<path class="st13" d="M941.1,317.5c-4,0-7.6-2.2-9.6-5.7c-0.7-1.2-1.1-2.6-1.3-4l-12-108.6l-7.6,0c-2.8,0-5.1-2.3-5.1-5.1
			c0-0.2,0-0.4,0-0.6c0.3-2.6,2.5-4.5,5.1-4.5h3.1L1019,189h3.1c2.8,0,5.1,2.3,5.1,5.1c0,0.2,0,0.4,0,0.6c-0.3,2.6-2.5,4.5-5,4.5
			h-7.6L1002,307.8c-0.2,1.9-1,3.8-2.1,5.3c-2.1,2.8-5.3,4.4-8.7,4.4L941.1,317.5z"/>
		<path class="st14" d="M1008.9,206.3l-8.9,81.9c-1.4,13-12.3,22.9-25.4,22.9l-2.3,0l-14.8,0c-0.8,0-1.5,0-2.2-0.1h0
			c-12-1.1-21.7-10.6-23-22.8l-8.6-82c3.8,1.4,7.6,2.7,11.3,3.7c1.7,0.5,3.4,0.9,5.1,1.3h0c2.1,0.5,4.3,0.9,6.4,1.3l0,0
			c1.9,0.3,3.7,0.6,5.6,0.8c2.5,0.3,5,0.5,7.5,0.6c8,0.4,16.1,0,24.3-1.3C992.3,211.3,1000.6,209.2,1008.9,206.3z"/>
		<path class="st15" d="M928.7,253.6l3.6,34.5c1.4,13,12.3,22.9,25.3,22.9l17.1,0c13,0,24-9.8,25.4-22.9l6.2-57.2
			C979.4,219.5,961.1,247.1,928.7,253.6z"/>
		<path class="st16" d="M997.2,287.6c0,8.2-14.6,20.1-32.1,20.1s-31.4-11.8-31.4-20.1c0-8.2,13.9-0.7,31.4-0.7
			S997.2,279.4,997.2,287.6z"/>
		<path class="st17" d="M1031.9,194.1c0,0.4,0,0.8-0.1,1.2c-0.6,4.9-4.8,8.7-9.8,8.7h-3.4l-11.9,104.4c-0.3,2.9-1.4,5.5-3,7.6
			c-2.9,3.9-7.5,6.3-12.6,6.3l-50-0.1c-5.9,0-11.1-3.3-13.7-8.2c-1-1.8-1.6-3.7-1.8-5.8l-11.5-104.4l-3.4,0c-5.4,0-9.8-4.4-9.8-9.9
			c0-0.4,0-0.8,0.1-1.2c0.6-4.9,4.7-8.7,9.8-8.7h3.1l105.2,0.2h3.1C1027.5,184.2,1031.9,188.7,1031.9,194.1z"/>
		<path class="st5" d="M955.4,310.9L955.4,310.9c-12-1.1-21.7-10.6-23-22.8l-8.6-82c3.8,1.4,7.6,2.7,11.3,3.7
			c1.7,0.5,3.4,0.9,5.1,1.3h0C940.2,211.1,935.1,283,955.4,310.9z"/>
		<path class="st18" d="M1009.4,205.5l-8.9,81.9c-1.4,13-12.3,22.9-25.4,22.9l-2.3,0c12.7-14.4,13.8-53.1,11.6-98.4
			C992.7,210.6,1001,208.5,1009.4,205.5z"/>
	</g>
	<g>
		<path class="st19" d="M996,391.9c-0.7,2.3-3.2,3.6-5.4,2.8c-2.3-0.7-3.5-3.2-2.8-5.5c0.7-2.3,3.2-3.6,5.4-2.8
			C995.5,387.2,996.7,389.6,996,391.9z"/>
		<path class="st20" d="M996.1,391.5c0,0.1-0.1,0.3-0.1,0.4c-0.7,2.3-3.2,3.6-5.4,2.8c-2.3-0.7-3.5-3.2-2.8-5.5
			c0.4-1.3,1.4-2.3,2.7-2.8c-0.4,2.2,0.8,4.4,2.9,5C994.3,391.9,995.2,391.8,996.1,391.5z"/>
		<path class="st21" d="M996,392c-0.8,2.3-3.2,3.5-5.4,2.8c-2.3-0.7-3.5-3.2-2.8-5.5c0.2-0.5,0.4-0.9,0.7-1.3c0,0,0,0,0,0
			c-0.7,2.3,0.5,4.7,2.8,5.5C993,394.1,994.9,393.4,996,392z"/>
		<path class="st22" d="M995.2,390.4c-0.3,0.3-0.7-0.6-1.5-1.5c-0.8-0.9-1.8-1.4-1.5-1.7c0.3-0.3,1.6-0.2,2.4,0.7
			C995.5,388.8,995.5,390.1,995.2,390.4z"/>
		<path class="st19" d="M978.2,374.7c-0.8,2.6-3.5,4-6.1,3.2c-2.6-0.8-4-3.6-3.2-6.1c0.8-2.6,3.5-4,6.1-3.2
			C977.6,369.4,979,372.1,978.2,374.7z"/>
		<path class="st20" d="M978.3,374.2c0,0.2-0.1,0.3-0.1,0.5c-0.8,2.6-3.5,4-6.1,3.2c-2.6-0.8-4-3.6-3.2-6.1c0.5-1.5,1.6-2.6,3-3.1
			c-0.5,2.4,0.9,4.9,3.3,5.6C976.3,374.6,977.4,374.6,978.3,374.2z"/>
		<path class="st21" d="M978.2,374.8c-0.8,2.5-3.5,3.9-6.1,3.1c-2.6-0.8-4-3.6-3.2-6.1c0.2-0.5,0.4-1,0.8-1.5c0,0,0,0,0,0.1
			c-0.8,2.6,0.6,5.3,3.2,6.1C974.9,377.1,977,376.4,978.2,374.8z"/>
		<path class="st22" d="M977.3,373c-0.4,0.3-0.8-0.7-1.7-1.7c-0.9-1-2-1.6-1.7-1.9c0.4-0.3,1.8-0.2,2.7,0.8
			C977.6,371.2,977.7,372.7,977.3,373z"/>
		<path class="st19" d="M945.9,385c-0.8,2.5-3.5,3.9-6,3.1c-2.5-0.8-3.9-3.5-3.1-6.1c0.8-2.5,3.5-3.9,6-3.1S946.7,382.4,945.9,385z"
			/>
		<path class="st20" d="M946,384.5c0,0.2-0.1,0.3-0.1,0.5c-0.8,2.5-3.5,3.9-6,3.1c-2.5-0.8-3.9-3.5-3.1-6.1c0.5-1.5,1.6-2.6,2.9-3.1
			c-0.5,2.4,0.9,4.8,3.2,5.6C944,384.9,945.1,384.8,946,384.5z"/>
		<path class="st21" d="M945.9,385c-0.8,2.5-3.5,3.9-6,3.1c-2.5-0.8-3.9-3.5-3.1-6.1c0.2-0.5,0.4-1,0.8-1.5c0,0,0,0,0,0.1
			c-0.8,2.5,0.6,5.2,3.1,6.1C942.6,387.3,944.7,386.6,945.9,385z"/>
		<path class="st22" d="M945,383.3c-0.4,0.3-0.8-0.7-1.7-1.7c-0.9-1-2-1.6-1.6-1.9s1.8-0.2,2.7,0.8C945.3,381.5,945.4,383,945,383.3
			z"/>
		<path class="st19" d="M963.7,387.9c-0.6,1.8-2.4,2.7-4.2,2.2c-1.7-0.6-2.7-2.4-2.2-4.2c0.6-1.8,2.4-2.7,4.2-2.2
			C963.3,384.3,964.3,386.1,963.7,387.9z"/>
		<path class="st20" d="M963.8,387.6c0,0.1-0.1,0.2-0.1,0.3c-0.6,1.8-2.4,2.7-4.2,2.2c-1.7-0.6-2.7-2.4-2.2-4.2c0.3-1,1.1-1.8,2-2.1
			c-0.3,1.7,0.6,3.3,2.3,3.9C962.4,387.8,963.2,387.8,963.8,387.6z"/>
		<path class="st21" d="M963.7,388c-0.6,1.7-2.4,2.7-4.2,2.1c-1.7-0.6-2.7-2.4-2.2-4.2c0.1-0.4,0.3-0.7,0.5-1c0,0,0,0,0,0
			c-0.6,1.8,0.4,3.6,2.2,4.2C961.4,389.5,962.9,389,963.7,388z"/>
		<path class="st22" d="M963.1,386.7c-0.2,0.2-0.5-0.5-1.2-1.2c-0.6-0.7-1.4-1.1-1.1-1.3c0.2-0.2,1.2-0.1,1.9,0.6
			C963.3,385.5,963.4,386.5,963.1,386.7z"/>
		<path class="st19" d="M954.3,409.9c-0.7,2.2-3,3.4-5.2,2.7c-2.2-0.7-3.4-3-2.7-5.2c0.7-2.2,3-3.4,5.2-2.7
			C953.8,405.4,955,407.7,954.3,409.9z"/>
		<path class="st20" d="M954.4,409.5c0,0.1-0.1,0.3-0.1,0.4c-0.7,2.2-3,3.4-5.2,2.7c-2.2-0.7-3.4-3-2.7-5.2c0.4-1.3,1.4-2.2,2.5-2.6
			c-0.4,2,0.8,4.1,2.8,4.8C952.7,409.8,953.6,409.8,954.4,409.5z"/>
		<path class="st21" d="M954.3,410c-0.7,2.2-3,3.3-5.2,2.6c-2.2-0.7-3.4-3-2.7-5.2c0.1-0.5,0.4-0.9,0.6-1.3c0,0,0,0,0,0
			c-0.7,2.2,0.5,4.5,2.7,5.2C951.5,411.9,953.3,411.3,954.3,410z"/>
		<path class="st22" d="M953.5,408.5c-0.3,0.3-0.7-0.6-1.4-1.5c-0.8-0.9-1.7-1.3-1.4-1.6c0.3-0.3,1.5-0.2,2.3,0.7
			C953.8,406.9,953.8,408.2,953.5,408.5z"/>
		<path class="st19" d="M947,363.6c-0.7,2.2-3,3.4-5.1,2.7c-2.1-0.7-3.3-3-2.7-5.2c0.7-2.2,3-3.4,5.1-2.7
			C946.5,359.1,947.7,361.4,947,363.6z"/>
		<path class="st20" d="M947.1,363.2c0,0.1-0.1,0.3-0.1,0.4c-0.7,2.2-3,3.3-5.1,2.7c-2.1-0.7-3.3-3-2.7-5.2c0.4-1.3,1.3-2.2,2.5-2.6
			c-0.4,2,0.8,4.1,2.8,4.7C945.4,363.5,946.3,363.5,947.1,363.2z"/>
		<path class="st21" d="M947,363.6c-0.7,2.1-3,3.3-5.1,2.6c-2.1-0.7-3.3-3-2.7-5.2c0.1-0.5,0.4-0.9,0.6-1.2c0,0,0,0,0,0
			c-0.7,2.2,0.5,4.5,2.7,5.2C944.2,365.6,946,365,947,363.6z"/>
		<path class="st22" d="M946.3,362.2c-0.3,0.3-0.6-0.6-1.4-1.4c-0.8-0.8-1.7-1.3-1.4-1.6c0.3-0.3,1.5-0.2,2.3,0.7
			C946.5,360.6,946.6,361.9,946.3,362.2z"/>
		<path class="st19" d="M980.9,409.1c-0.9,2.7-3.8,4.3-6.5,3.4c-2.7-0.9-4.2-3.8-3.4-6.5c0.9-2.7,3.8-4.3,6.5-3.4
			C980.2,403.4,981.8,406.4,980.9,409.1z"/>
		<path class="st20" d="M981,408.6c0,0.2-0.1,0.4-0.1,0.5c-0.9,2.7-3.8,4.3-6.5,3.4c-2.7-0.9-4.2-3.8-3.4-6.5
			c0.5-1.6,1.7-2.8,3.2-3.3c-0.5,2.6,1,5.2,3.5,6C978.8,409,980,409,981,408.6z"/>
		<path class="st21" d="M980.9,409.2c-0.9,2.7-3.8,4.2-6.5,3.3c-2.7-0.9-4.2-3.8-3.4-6.5c0.2-0.6,0.5-1.1,0.8-1.6c0,0,0,0,0,0.1
			c-0.9,2.7,0.6,5.7,3.4,6.5C977.3,411.7,979.6,410.9,980.9,409.2z"/>
		<path class="st22" d="M979.9,407.3c-0.4,0.4-0.8-0.8-1.8-1.8c-1-1.1-2.1-1.7-1.8-2c0.4-0.4,1.9-0.2,2.9,0.9
			C980.2,405.4,980.3,406.9,979.9,407.3z"/>
	</g>
	<g>
		<path class="st23" d="M851.8,391.9c-0.7,2.3-3.2,3.6-5.4,2.8c-2.3-0.7-3.5-3.2-2.8-5.5c0.7-2.3,3.2-3.6,5.4-2.8
			C851.2,387.2,852.5,389.6,851.8,391.9z"/>
		<path class="st24" d="M851.9,391.5c0,0.1-0.1,0.3-0.1,0.4c-0.7,2.3-3.2,3.6-5.4,2.8c-2.3-0.7-3.5-3.2-2.8-5.5
			c0.4-1.3,1.4-2.3,2.7-2.8c-0.4,2.2,0.8,4.4,2.9,5C850,391.9,851,391.8,851.9,391.5z"/>
		<path class="st25" d="M851.8,392c-0.8,2.3-3.2,3.5-5.4,2.8c-2.3-0.7-3.5-3.2-2.8-5.5c0.2-0.5,0.4-0.9,0.7-1.3c0,0,0,0,0,0
			c-0.7,2.3,0.5,4.7,2.8,5.5C848.8,394.1,850.7,393.4,851.8,392z"/>
		<path class="st26" d="M851,390.4c-0.3,0.3-0.7-0.6-1.5-1.5c-0.8-0.9-1.8-1.4-1.5-1.7c0.3-0.3,1.6-0.2,2.4,0.7
			C851.2,388.8,851.3,390.1,851,390.4z"/>
		<path class="st23" d="M834,374.7c-0.8,2.6-3.5,4-6.1,3.2c-2.6-0.8-4-3.6-3.2-6.1c0.8-2.6,3.5-4,6.1-3.2
			C833.4,369.4,834.8,372.1,834,374.7z"/>
		<path class="st24" d="M834.1,374.2c0,0.2-0.1,0.3-0.1,0.5c-0.8,2.6-3.5,4-6.1,3.2c-2.6-0.8-4-3.6-3.2-6.1c0.5-1.5,1.6-2.6,3-3.1
			c-0.5,2.4,0.9,4.9,3.3,5.6C832.1,374.6,833.2,374.6,834.1,374.2z"/>
		<path class="st25" d="M834,374.8c-0.8,2.5-3.5,3.9-6.1,3.1c-2.6-0.8-4-3.6-3.2-6.1c0.2-0.5,0.4-1,0.8-1.5c0,0,0,0,0,0.1
			c-0.8,2.6,0.6,5.3,3.2,6.1C830.7,377.1,832.8,376.4,834,374.8z"/>
		<path class="st26" d="M833.1,373c-0.4,0.3-0.8-0.7-1.7-1.7c-0.9-1-2-1.6-1.7-1.9c0.4-0.3,1.8-0.2,2.7,0.8
			C833.4,371.2,833.5,372.7,833.1,373z"/>
		<path class="st23" d="M801.7,385c-0.8,2.5-3.5,3.9-6,3.1c-2.5-0.8-3.9-3.5-3.1-6.1c0.8-2.5,3.5-3.9,6-3.1S802.5,382.4,801.7,385z"
			/>
		<path class="st24" d="M801.8,384.5c0,0.2-0.1,0.3-0.1,0.5c-0.8,2.5-3.5,3.9-6,3.1c-2.5-0.8-3.9-3.5-3.1-6.1
			c0.5-1.5,1.6-2.6,2.9-3.1c-0.5,2.4,0.9,4.8,3.2,5.6C799.8,384.9,800.8,384.8,801.8,384.5z"/>
		<path class="st27" d="M801.7,385c-0.8,2.5-3.5,3.9-6,3.1c-2.5-0.8-3.9-3.5-3.1-6.1c0.2-0.5,0.4-1,0.8-1.5c0,0,0,0,0,0.1
			c-0.8,2.5,0.6,5.2,3.1,6.1C798.4,387.3,800.5,386.6,801.7,385z"/>
		<path class="st26" d="M800.8,383.3c-0.4,0.3-0.8-0.7-1.7-1.7c-0.9-1-2-1.6-1.6-1.9s1.8-0.2,2.7,0.8
			C801.1,381.5,801.1,383,800.8,383.3z"/>
		<path class="st23" d="M819.5,387.9c-0.6,1.8-2.4,2.7-4.2,2.2c-1.7-0.6-2.7-2.4-2.2-4.2c0.6-1.8,2.4-2.7,4.2-2.2
			C819.1,384.3,820.1,386.1,819.5,387.9z"/>
		<path class="st24" d="M819.6,387.6c0,0.1-0.1,0.2-0.1,0.3c-0.6,1.8-2.4,2.7-4.2,2.2c-1.7-0.6-2.7-2.4-2.2-4.2c0.3-1,1.1-1.8,2-2.1
			c-0.3,1.7,0.6,3.3,2.3,3.9C818.2,387.8,818.9,387.8,819.6,387.6z"/>
		<path class="st25" d="M819.5,388c-0.6,1.7-2.4,2.7-4.2,2.1c-1.7-0.6-2.7-2.4-2.2-4.2c0.1-0.4,0.3-0.7,0.5-1c0,0,0,0,0,0
			c-0.6,1.8,0.4,3.6,2.2,4.2C817.2,389.5,818.7,389,819.5,388z"/>
		<path class="st26" d="M818.9,386.7c-0.2,0.2-0.5-0.5-1.2-1.2c-0.6-0.7-1.4-1.1-1.1-1.3c0.2-0.2,1.2-0.1,1.9,0.6
			C819.1,385.5,819.1,386.5,818.9,386.7z"/>
		<path class="st23" d="M810.1,409.9c-0.7,2.2-3,3.4-5.2,2.7c-2.2-0.7-3.4-3-2.7-5.2c0.7-2.2,3-3.4,5.2-2.7
			C809.6,405.4,810.8,407.7,810.1,409.9z"/>
		<path class="st24" d="M810.2,409.5c0,0.1-0.1,0.3-0.1,0.4c-0.7,2.2-3,3.4-5.2,2.7c-2.2-0.7-3.4-3-2.7-5.2c0.4-1.3,1.4-2.2,2.5-2.6
			c-0.4,2,0.8,4.1,2.8,4.8C808.4,409.8,809.4,409.8,810.2,409.5z"/>
		<path class="st25" d="M810.1,410c-0.7,2.2-3,3.3-5.2,2.6c-2.2-0.7-3.4-3-2.7-5.2c0.1-0.5,0.4-0.9,0.6-1.3c0,0,0,0,0,0
			c-0.7,2.2,0.5,4.5,2.7,5.2C807.3,411.9,809.1,411.3,810.1,410z"/>
		<path class="st26" d="M809.3,408.5c-0.3,0.3-0.7-0.6-1.4-1.5c-0.8-0.9-1.7-1.3-1.4-1.6c0.3-0.3,1.5-0.2,2.3,0.7
			C809.6,406.9,809.6,408.2,809.3,408.5z"/>
		<path class="st23" d="M802.8,363.6c-0.7,2.2-3,3.4-5.1,2.7c-2.1-0.7-3.3-3-2.7-5.2c0.7-2.2,3-3.4,5.1-2.7
			C802.3,359.1,803.5,361.4,802.8,363.6z"/>
		<path class="st24" d="M802.9,363.2c0,0.1-0.1,0.3-0.1,0.4c-0.7,2.2-3,3.3-5.1,2.7c-2.1-0.7-3.3-3-2.7-5.2c0.4-1.3,1.3-2.2,2.5-2.6
			c-0.4,2,0.8,4.1,2.8,4.7C801.2,363.5,802.1,363.5,802.9,363.2z"/>
		<path class="st25" d="M802.8,363.6c-0.7,2.1-3,3.3-5.1,2.6c-2.1-0.7-3.3-3-2.7-5.2c0.1-0.5,0.4-0.9,0.6-1.2c0,0,0,0,0,0
			c-0.7,2.2,0.5,4.5,2.7,5.2C800,365.6,801.8,365,802.8,363.6z"/>
		<path class="st26" d="M802.1,362.2c-0.3,0.3-0.6-0.6-1.4-1.4c-0.8-0.8-1.7-1.3-1.4-1.6c0.3-0.3,1.5-0.2,2.3,0.7
			C802.3,360.6,802.3,361.9,802.1,362.2z"/>
		<path class="st23" d="M836.7,409.1c-0.9,2.7-3.8,4.3-6.5,3.4s-4.2-3.8-3.4-6.5c0.9-2.7,3.8-4.3,6.5-3.4
			C836,403.4,837.5,406.4,836.7,409.1z"/>
		<path class="st24" d="M836.8,408.6c0,0.2-0.1,0.4-0.1,0.5c-0.9,2.7-3.8,4.3-6.5,3.4c-2.7-0.9-4.2-3.8-3.4-6.5
			c0.5-1.6,1.7-2.8,3.2-3.3c-0.5,2.6,1,5.2,3.5,6C834.6,409,835.8,409,836.8,408.6z"/>
		<path class="st25" d="M836.7,409.2c-0.9,2.7-3.8,4.2-6.5,3.3c-2.7-0.9-4.2-3.8-3.4-6.5c0.2-0.6,0.5-1.1,0.8-1.6c0,0,0,0,0,0.1
			c-0.9,2.7,0.6,5.7,3.4,6.5C833.1,411.7,835.4,410.9,836.7,409.2z"/>
		<path class="st26" d="M835.7,407.3c-0.4,0.4-0.8-0.8-1.8-1.8c-1-1.1-2.1-1.7-1.8-2c0.4-0.4,1.9-0.2,2.9,0.9
			C836,405.4,836.1,406.9,835.7,407.3z"/>
	</g>
	<g>
		<path class="st28" d="M707.6,391.9c-0.7,2.3-3.2,3.6-5.4,2.8c-2.3-0.7-3.5-3.2-2.8-5.5c0.7-2.3,3.2-3.6,5.4-2.8
			C707,387.2,708.3,389.6,707.6,391.9z"/>
		<path class="st29" d="M707.7,391.5c0,0.1-0.1,0.3-0.1,0.4c-0.7,2.3-3.2,3.6-5.4,2.8c-2.3-0.7-3.5-3.2-2.8-5.5
			c0.4-1.3,1.4-2.3,2.7-2.8c-0.4,2.2,0.8,4.4,2.9,5C705.8,391.9,706.8,391.8,707.7,391.5z"/>
		<path class="st30" d="M707.5,392c-0.8,2.3-3.2,3.5-5.4,2.8c-2.3-0.7-3.5-3.2-2.8-5.5c0.2-0.5,0.4-0.9,0.7-1.3c0,0,0,0,0,0
			c-0.7,2.3,0.5,4.7,2.8,5.5C704.6,394.1,706.5,393.4,707.5,392z"/>
		<path class="st31" d="M706.7,390.4c-0.3,0.3-0.7-0.6-1.5-1.5c-0.8-0.9-1.8-1.4-1.5-1.7c0.3-0.3,1.6-0.2,2.4,0.7
			C707,388.8,707.1,390.1,706.7,390.4z"/>
		<path class="st28" d="M689.8,374.7c-0.8,2.6-3.5,4-6.1,3.2c-2.6-0.8-4-3.6-3.2-6.1c0.8-2.6,3.5-4,6.1-3.2
			C689.2,369.4,690.6,372.1,689.8,374.7z"/>
		<path class="st29" d="M689.9,374.2c0,0.2-0.1,0.3-0.1,0.5c-0.8,2.6-3.5,4-6.1,3.2c-2.6-0.8-4-3.6-3.2-6.1c0.5-1.5,1.6-2.6,3-3.1
			c-0.5,2.4,0.9,4.9,3.3,5.6C687.8,374.6,688.9,374.6,689.9,374.2z"/>
		<path class="st30" d="M689.8,374.8c-0.8,2.5-3.5,3.9-6.1,3.1c-2.6-0.8-4-3.6-3.2-6.1c0.2-0.5,0.4-1,0.8-1.5c0,0,0,0,0,0.1
			c-0.8,2.6,0.6,5.3,3.2,6.1C686.4,377.1,688.6,376.4,689.8,374.8z"/>
		<path class="st31" d="M688.9,373c-0.4,0.3-0.8-0.7-1.7-1.7c-0.9-1-2-1.6-1.7-1.9c0.4-0.3,1.8-0.2,2.7,0.8
			C689.2,371.2,689.2,372.7,688.9,373z"/>
		<path class="st28" d="M657.5,385c-0.8,2.5-3.5,3.9-6,3.1c-2.5-0.8-3.9-3.5-3.1-6.1c0.8-2.5,3.5-3.9,6-3.1S658.3,382.4,657.5,385z"
			/>
		<path class="st29" d="M657.6,384.5c0,0.2-0.1,0.3-0.1,0.5c-0.8,2.5-3.5,3.9-6,3.1c-2.5-0.8-3.9-3.5-3.1-6.1
			c0.5-1.5,1.6-2.6,2.9-3.1c-0.5,2.4,0.9,4.8,3.2,5.6C655.5,384.9,656.6,384.8,657.6,384.5z"/>
		<path class="st30" d="M657.4,385c-0.8,2.5-3.5,3.9-6,3.1c-2.5-0.8-3.9-3.5-3.1-6.1c0.2-0.5,0.4-1,0.8-1.5c0,0,0,0,0,0.1
			c-0.8,2.5,0.6,5.2,3.1,6.1C654.2,387.3,656.3,386.6,657.4,385z"/>
		<path class="st31" d="M656.6,383.3c-0.4,0.3-0.8-0.7-1.7-1.7c-0.9-1-2-1.6-1.6-1.9s1.8-0.2,2.7,0.8
			C656.9,381.5,656.9,383,656.6,383.3z"/>
		<path class="st28" d="M675.3,387.9c-0.6,1.8-2.4,2.7-4.2,2.2c-1.7-0.6-2.7-2.4-2.2-4.2c0.6-1.8,2.4-2.7,4.2-2.2
			C674.9,384.3,675.8,386.1,675.3,387.9z"/>
		<path class="st29" d="M675.4,387.6c0,0.1-0.1,0.2-0.1,0.3c-0.6,1.8-2.4,2.7-4.2,2.2c-1.7-0.6-2.7-2.4-2.2-4.2c0.3-1,1.1-1.8,2-2.1
			c-0.3,1.7,0.6,3.3,2.3,3.9C674,387.8,674.7,387.8,675.4,387.6z"/>
		<path class="st30" d="M675.3,388c-0.6,1.7-2.4,2.7-4.2,2.1c-1.7-0.6-2.7-2.4-2.2-4.2c0.1-0.4,0.3-0.7,0.5-1c0,0,0,0,0,0
			c-0.6,1.8,0.4,3.6,2.2,4.2C673,389.5,674.5,389,675.3,388z"/>
		<path class="st31" d="M674.7,386.7c-0.2,0.2-0.5-0.5-1.2-1.2c-0.6-0.7-1.4-1.1-1.1-1.3c0.2-0.2,1.2-0.1,1.9,0.6
			C674.9,385.5,674.9,386.5,674.7,386.7z"/>
		<path class="st28" d="M665.9,409.9c-0.7,2.2-3,3.4-5.2,2.7c-2.2-0.7-3.4-3-2.7-5.2c0.7-2.2,3-3.4,5.2-2.7
			C665.3,405.4,666.6,407.7,665.9,409.9z"/>
		<path class="st29" d="M666,409.5c0,0.1-0.1,0.3-0.1,0.4c-0.7,2.2-3,3.4-5.2,2.7c-2.2-0.7-3.4-3-2.7-5.2c0.4-1.3,1.4-2.2,2.5-2.6
			c-0.4,2,0.8,4.1,2.8,4.8C664.2,409.8,665.1,409.8,666,409.5z"/>
		<path class="st30" d="M665.8,410c-0.7,2.2-3,3.3-5.2,2.6c-2.2-0.7-3.4-3-2.7-5.2c0.1-0.5,0.4-0.9,0.6-1.3c0,0,0,0,0,0
			c-0.7,2.2,0.5,4.5,2.7,5.2C663,411.9,664.8,411.3,665.8,410z"/>
		<path class="st31" d="M665.1,408.5c-0.3,0.3-0.7-0.6-1.4-1.5c-0.8-0.9-1.7-1.3-1.4-1.6c0.3-0.3,1.5-0.2,2.3,0.7
			C665.3,406.9,665.4,408.2,665.1,408.5z"/>
		<path class="st28" d="M658.6,363.6c-0.7,2.2-3,3.4-5.1,2.7c-2.1-0.7-3.3-3-2.7-5.2c0.7-2.2,3-3.4,5.1-2.7
			C658.1,359.1,659.3,361.4,658.6,363.6z"/>
		<path class="st29" d="M658.7,363.2c0,0.1-0.1,0.3-0.1,0.4c-0.7,2.2-3,3.3-5.1,2.7c-2.1-0.7-3.3-3-2.7-5.2c0.4-1.3,1.3-2.2,2.5-2.6
			c-0.4,2,0.8,4.1,2.8,4.7C657,363.5,657.9,363.5,658.7,363.2z"/>
		<path class="st30" d="M658.6,363.6c-0.7,2.1-3,3.3-5.1,2.6c-2.1-0.7-3.3-3-2.7-5.2c0.1-0.5,0.4-0.9,0.6-1.2c0,0,0,0,0,0
			c-0.7,2.2,0.5,4.5,2.7,5.2C655.8,365.6,657.6,365,658.6,363.6z"/>
		<path class="st31" d="M657.8,362.2c-0.3,0.3-0.6-0.6-1.4-1.4c-0.8-0.8-1.7-1.3-1.4-1.6c0.3-0.3,1.5-0.2,2.3,0.7
			C658.1,360.6,658.1,361.9,657.8,362.2z"/>
		<path class="st28" d="M692.5,409.1c-0.9,2.7-3.8,4.3-6.5,3.4c-2.7-0.9-4.2-3.8-3.4-6.5c0.9-2.7,3.8-4.3,6.5-3.4
			C691.8,403.4,693.3,406.4,692.5,409.1z"/>
		<path class="st29" d="M692.6,408.6c0,0.2-0.1,0.4-0.1,0.5c-0.9,2.7-3.8,4.3-6.5,3.4c-2.7-0.9-4.2-3.8-3.4-6.5
			c0.5-1.6,1.7-2.8,3.2-3.3c-0.5,2.6,1,5.2,3.5,6C690.4,409,691.6,409,692.6,408.6z"/>
		<path class="st30" d="M692.4,409.2c-0.9,2.7-3.8,4.2-6.5,3.3c-2.7-0.9-4.2-3.8-3.4-6.5c0.2-0.6,0.5-1.1,0.8-1.6c0,0,0,0,0,0.1
			c-0.9,2.7,0.6,5.7,3.4,6.5C688.9,411.7,691.2,410.9,692.4,409.2z"/>
		<path class="st31" d="M691.5,407.3c-0.4,0.4-0.8-0.8-1.8-1.8c-1-1.1-2.1-1.7-1.8-2c0.4-0.4,1.9-0.2,2.9,0.9
			C691.8,405.4,691.9,406.9,691.5,407.3z"/>
	</g>
	<g>
		<path class="st0" d="M630.8,159.8c1.4-7.1,4.4-13.9,8.8-19.7c2.9-3.8,6.3-7.2,10.2-10.1c8.2-5.9,17.9-9.1,28.1-9.1
			c10.3,0,20,3.2,28.2,9.2c3.9,2.8,7.3,6.2,10.2,10.1c4.4,5.9,7.3,12.6,8.7,19.7L630.8,159.8z"/>
		<path class="st4" d="M730.5,159.5l-105.2-0.2c0.9-10.2,4.7-19.6,10.5-27.4c3.2-4.2,7-7.9,11.2-11.1c8.7-6.3,19.4-10,30.9-10
			c11.5,0,22.2,3.8,30.9,10.1c4.3,3.1,8,6.9,11.2,11.1C725.9,139.9,729.6,149.3,730.5,159.5z"/>
		<path class="st4" d="M684.8,111.3c4.4,0.6,6.7,1.7,6.7,3.1c0,2-6.1,3.5-13.5,3.5c-7.5,0-13.5-1.6-13.5-3.6c0-1.6,3.6-2.9,9.2-3.3"
			/>
	</g>
	<g>
		<path class="st7" d="M775,159.8c1.4-7.1,4.4-13.9,8.8-19.7c2.9-3.8,6.3-7.2,10.2-10.1c8.2-5.9,17.9-9.1,28.1-9.1
			c10.3,0,20,3.2,28.2,9.2c3.9,2.8,7.3,6.2,10.2,10.1c4.4,5.9,7.3,12.6,8.7,19.7L775,159.8z"/>
		<path class="st11" d="M874.7,159.5l-105.2-0.2c0.9-10.2,4.7-19.6,10.5-27.4c3.2-4.2,7-7.9,11.2-11.1c8.7-6.3,19.4-10,30.9-10
			c11.5,0,22.2,3.8,30.9,10.1c4.3,3.1,8,6.9,11.2,11.1C870.1,139.9,873.9,149.3,874.7,159.5z"/>
		<path class="st11" d="M829,111.3c4.4,0.6,6.7,1.7,6.7,3.1c0,2-6.1,3.5-13.5,3.5c-7.5,0-13.5-1.6-13.5-3.6c0-1.6,3.6-2.9,9.2-3.3"
			/>
	</g>
	<g>
		<path class="st13" d="M919.2,159.8c1.4-7.1,4.4-13.9,8.8-19.7c2.9-3.8,6.3-7.2,10.2-10.1c8.2-5.9,17.9-9.1,28.1-9.1
			c10.3,0,20,3.2,28.2,9.2c3.9,2.8,7.3,6.2,10.2,10.1c4.4,5.9,7.3,12.6,8.7,19.7L919.2,159.8z"/>
		<path class="st17" d="M1018.9,159.5l-105.2-0.2c0.9-10.2,4.7-19.6,10.5-27.4c3.2-4.2,7-7.9,11.2-11.1c8.7-6.3,19.4-10,30.9-10
			c11.5,0,22.2,3.8,30.9,10.1c4.3,3.1,8,6.9,11.2,11.1C1014.4,139.9,1018.1,149.3,1018.9,159.5z"/>
		<path class="st17" d="M973.3,111.3c4.4,0.6,6.7,1.7,6.7,3.1c0,2-6.1,3.5-13.5,3.5c-7.5,0-13.5-1.6-13.5-3.6c0-1.6,3.6-2.9,9.2-3.3
			"/>
	</g>
</g>
<g>
	<path class="st0" d="M127.7,239.2c3.8-19.5,12.1-38,24.1-54c7.9-10.5,17.3-19.8,28.1-27.6c22.5-16.3,49.1-24.9,76.9-24.9
		c28.1,0.1,54.7,8.8,77.2,25.2c10.6,7.8,20,17.1,28,27.7c12,16,20.1,34.5,23.9,54.1L127.7,239.2z"/>
	<path class="st0" d="M187.7,603.3c-10.9,0-20.9-6-26.2-15.7c-1.8-3.4-3-7.1-3.4-11l-32.9-297.6l-20.9-0.1c-7.7,0-13.9-6.3-13.9-14
		c0-0.5,0-1,0.1-1.6c0.8-7.1,6.8-12.4,13.9-12.4h8.5l288.1,0.5h8.5c7.7,0,13.9,6.3,13.9,14c0,0.7,0,1.2-0.1,1.5
		c-0.8,7.2-6.8,12.4-13.8,12.4h-21l-33.9,297.5c-0.6,5.3-2.6,10.3-5.7,14.5c-5.6,7.6-14.6,12.1-23.9,12.1L187.7,603.3z"/>
	<path class="st1" d="M373.4,298.6l-24.3,224.5c-3.9,35.7-33.8,62.7-69.5,62.6l-6.3,0l-40.6-0.1c-2.1,0-4.1-0.1-6.1-0.3h-0.1
		c-32.9-3-59.5-29-63-62.5L140,298.2c10.3,4,20.7,7.4,31.1,10.2c4.7,1.3,9.4,2.5,14.1,3.6h0c5.9,1.3,11.7,2.5,17.6,3.5l0.1,0
		c5.1,0.9,10.2,1.6,15.3,2.2c6.8,0.8,13.6,1.4,20.5,1.8c22,1.2,44.2,0,66.6-3.4C327.8,312.5,350.5,306.7,373.4,298.6z"/>
	<path class="st2" d="M153.6,428.2l9.9,94.6c3.7,35.6,33.6,62.8,69.2,62.8l46.9,0.1c35.7,0.1,65.6-27,69.5-62.6l16.9-156.6
		C292.5,334.8,242.4,410.6,153.6,428.2z"/>
	<path class="st3" d="M341.1,521.5c0,22.6-40,55-88,55c-48.1,0-86.1-32.4-86.1-55s38-1.8,86.1-1.8
		C301.2,519.7,341.1,499,341.1,521.5z"/>
	<path class="st32" d="M400.9,238.2l-288.1-0.5c2.4-28.1,12.8-53.8,28.7-75c8.7-11.6,19.1-21.8,30.8-30.3
		c23.8-17.3,53.1-27.5,84.8-27.4c31.6,0.1,60.9,10.3,84.6,27.7c11.7,8.5,22,18.8,30.7,30.4C388.3,184.4,398.5,210.2,400.9,238.2z"/>
	<path class="st33" d="M273.4,128.2l-59.6,428.5l-30.2-4.3l59-424c4.4,0.5,9.3,0.8,14.4,0.8C262.9,129.2,268.4,128.9,273.4,128.2z"
		/>
	<path class="st32" d="M436.2,265.4c0,1.1-0.1,2.1-0.2,3.2c-1.6,13.5-13,23.9-26.8,23.9H400l-32.6,285.9c-0.9,7.8-3.9,15-8.3,20.9
		c-7.9,10.6-20.5,17.4-34.4,17.3l-137-0.2c-16.1,0-30.3-9-37.6-22.5c-2.6-4.8-4.3-10.2-4.9-15.9l-31.6-286l-9.3,0
		c-14.9,0-26.9-12.2-26.9-27.2c0-1.1,0.1-2.1,0.2-3.2c1.6-13.5,13-23.9,26.8-23.9h8.5l288.1,0.5h8.4
		C424.2,238.3,436.3,250.4,436.2,265.4z"/>
	<path class="st32" d="M275.7,111.1c12.1,1.6,18.4,4.6,18.4,8.4c0,5.4-16.6,9.7-37.1,9.6c-20.5,0-37.1-4.4-37-9.8
		c0-4.4,9.8-8,25.2-9.2"/>
	<path class="st34" d="M282.8,60l-7,50.3l-2.3,17.1c-4.9,0.6-10.5,1-16.4,0.9c-5.1,0-10-0.3-14.4-0.8l2.5-18.2l7.4-53.6L282.8,60z"
		/>
	<path class="st35" d="M282.5,56.3c1.6,10.6-3.8,20.3-11.9,21.5c-8.2,1.2-16.1-6.4-17.6-17.1c-1.6-10.6,3.8-20.3,11.9-21.5
		C273,38,281,45.7,282.5,56.3z"/>
	<path class="st28" d="M337.1,497.9c-2,6.3-8.6,9.8-14.9,7.8c-6.2-2-9.7-8.7-7.7-15c2-6.3,8.6-9.8,14.9-7.8
		C335.7,484.9,339.1,491.6,337.1,497.9z"/>
	<path class="st29" d="M337.4,496.7c-0.1,0.4-0.2,0.8-0.3,1.2c-2,6.3-8.7,9.7-14.9,7.8c-6.2-2-9.7-8.7-7.7-15
		c1.1-3.7,3.9-6.4,7.3-7.6c-1.2,5.9,2.2,11.9,8,13.8C332.4,497.7,335.1,497.6,337.4,496.7z"/>
	<path class="st30" d="M337.1,498.1c-2.1,6.2-8.7,9.6-14.9,7.6c-6.2-2-9.7-8.7-7.7-15c0.4-1.3,1-2.5,1.8-3.6c0,0.1,0,0.1-0.1,0.1
		c-2,6.3,1.5,13,7.7,15C329,503.8,334.2,501.9,337.1,498.1z"/>
	<path class="st31" d="M334.9,493.7c-0.9,0.8-1.9-1.8-4.2-4.2c-2.3-2.4-4.9-3.9-4-4.7c0.9-0.8,4.4-0.5,6.6,2
		C335.6,489.3,335.8,492.9,334.9,493.7z"/>
	<path class="st28" d="M293.8,451c-2.2,7-9.7,11-16.7,8.7c-7-2.2-10.9-9.8-8.6-16.8c2.2-7,9.7-11,16.7-8.7
		C292.1,436.4,296,443.9,293.8,451z"/>
	<path class="st29" d="M294.1,449.6c-0.1,0.4-0.2,0.9-0.3,1.3c-2.2,7-9.7,10.9-16.7,8.7c-7-2.2-10.9-9.7-8.6-16.8
		c1.3-4.1,4.4-7.2,8.1-8.5c-1.4,6.6,2.4,13.4,9,15.5C288.5,450.7,291.5,450.6,294.1,449.6z"/>
	<path class="st30" d="M293.7,451.2c-2.3,6.9-9.7,10.8-16.7,8.5c-7-2.2-10.9-9.7-8.6-16.8c0.5-1.5,1.2-2.9,2.1-4.1
		c0,0.1-0.1,0.1-0.1,0.2c-2.2,7,1.6,14.6,8.7,16.8C284.7,457.5,290.4,455.5,293.7,451.2z"/>
	<path class="st31" d="M291.3,446.3c-1,0.9-2.1-2-4.7-4.7c-2.5-2.8-5.5-4.3-4.5-5.3c1-0.9,4.9-0.5,7.4,2.2
		C292.1,441.3,292.3,445.4,291.3,446.3z"/>
	<path class="st28" d="M205.2,479.1c-2.2,7-9.6,10.8-16.5,8.6c-6.9-2.2-10.7-9.6-8.5-16.6c2.2-7,9.6-10.8,16.5-8.6
		C203.6,464.7,207.4,472.2,205.2,479.1z"/>
	<path class="st29" d="M205.6,477.8c-0.1,0.4-0.2,0.9-0.3,1.3c-2.2,6.9-9.6,10.8-16.5,8.6c-6.9-2.2-10.8-9.6-8.5-16.6
		c1.3-4.1,4.3-7.1,8-8.4c-1.4,6.5,2.4,13.2,8.9,15.2C200,478.9,202.9,478.8,205.6,477.8z"/>
	<path class="st30" d="M205.2,479.3c-2.3,6.9-9.6,10.6-16.5,8.4c-6.9-2.2-10.8-9.6-8.5-16.6c0.5-1.5,1.2-2.8,2.1-4
		c0,0.1,0,0.1-0.1,0.2c-2.2,7,1.6,14.4,8.6,16.6C196.2,485.6,201.9,483.6,205.2,479.3z"/>
	<path class="st31" d="M202.8,474.5c-1,0.9-2.1-1.9-4.6-4.7c-2.5-2.7-5.4-4.3-4.5-5.2c1-0.9,4.8-0.5,7.3,2.2
		C203.6,469.6,203.7,473.6,202.8,474.5z"/>
	<path class="st28" d="M254.1,487.1c-1.5,4.8-6.6,7.5-11.5,6c-4.8-1.5-7.4-6.7-5.9-11.5c1.5-4.8,6.6-7.5,11.5-6
		C252.9,477.2,255.6,482.3,254.1,487.1z"/>
	<path class="st29" d="M254.3,486.2c-0.1,0.3-0.2,0.6-0.2,0.9c-1.5,4.8-6.7,7.5-11.5,6c-4.8-1.5-7.5-6.7-5.9-11.5
		c0.9-2.8,3-4.9,5.6-5.8c-0.9,4.5,1.7,9.1,6.2,10.6C250.4,487,252.5,486.9,254.3,486.2z"/>
	<path class="st30" d="M254.1,487.3c-1.6,4.8-6.7,7.4-11.4,5.8c-4.8-1.5-7.5-6.7-5.9-11.5c0.3-1,0.8-2,1.4-2.8c0,0,0,0.1,0,0.1
		c-1.5,4.8,1.1,10,5.9,11.5C247.8,491.6,251.8,490.3,254.1,487.3z"/>
	<path class="st31" d="M252.4,483.9c-0.7,0.6-1.5-1.3-3.2-3.2c-1.7-1.9-3.8-3-3.1-3.6c0.7-0.6,3.4-0.4,5.1,1.5
		C252.9,480.5,253,483.3,252.4,483.9z"/>
	<path class="st28" d="M228.2,547.4c-1.9,6-8.2,9.3-14.2,7.4c-5.9-1.9-9.2-8.3-7.3-14.2c1.9-6,8.2-9.3,14.2-7.4
		C226.8,535.1,230.1,541.5,228.2,547.4z"/>
	<path class="st29" d="M228.6,546.3c-0.1,0.4-0.2,0.8-0.3,1.2c-1.9,6-8.2,9.2-14.2,7.4c-5.9-1.9-9.2-8.3-7.3-14.2
		c1.1-3.5,3.7-6.1,6.9-7.2c-1.2,5.6,2.1,11.3,7.6,13.1C223.8,547.2,226.3,547.1,228.6,546.3z"/>
	<path class="st30" d="M228.2,547.6c-2,5.9-8.3,9.1-14.1,7.2c-5.9-1.9-9.2-8.3-7.3-14.2c0.4-1.3,1-2.4,1.8-3.4c0,0.1,0,0.1,0,0.1
		c-1.9,6,1.4,12.3,7.3,14.2C220.5,553,225.4,551.3,228.2,547.6z"/>
	<path class="st31" d="M226.2,543.5c-0.8,0.8-1.8-1.6-4-4c-2.2-2.3-4.7-3.7-3.9-4.5c0.8-0.8,4.2-0.4,6.3,1.9
		C226.8,539.2,227,542.7,226.2,543.5z"/>
	<path class="st28" d="M208.3,420.6c-1.9,5.9-8.1,9.2-14,7.3c-5.9-1.9-9.1-8.2-7.3-14.1c1.9-5.9,8.1-9.2,14-7.3
		C206.9,408.3,210.2,414.6,208.3,420.6z"/>
	<path class="st29" d="M208.6,419.4c-0.1,0.4-0.2,0.8-0.3,1.1c-1.9,5.9-8.2,9.2-14,7.3c-5.9-1.9-9.1-8.2-7.3-14.1
		c1.1-3.5,3.7-6.1,6.8-7.2c-1.1,5.6,2.1,11.2,7.5,13C203.9,420.3,206.4,420.2,208.6,419.4z"/>
	<path class="st30" d="M208.3,420.7c-2,5.8-8.2,9-14,7.2c-5.9-1.9-9.1-8.2-7.3-14.1c0.4-1.3,1-2.4,1.7-3.4c0,0.1,0,0.1,0,0.1
		c-1.8,5.9,1.4,12.2,7.3,14.1C200.6,426.1,205.5,424.4,208.3,420.7z"/>
	<path class="st31" d="M206.2,416.6c-0.8,0.8-1.8-1.6-3.9-4c-2.1-2.3-4.6-3.6-3.8-4.4c0.8-0.8,4.1-0.4,6.2,1.9
		C206.9,412.4,207.1,415.9,206.2,416.6z"/>
	<path class="st28" d="M301.1,545.3c-2.4,7.5-10.4,11.7-17.8,9.3c-7.5-2.4-11.6-10.4-9.2-17.9c2.4-7.5,10.4-11.7,17.8-9.3
		C299.3,529.7,303.5,537.7,301.1,545.3z"/>
	<path class="st29" d="M301.5,543.8c-0.1,0.5-0.2,1-0.4,1.4c-2.4,7.5-10.4,11.7-17.8,9.3c-7.5-2.4-11.6-10.4-9.2-17.9
		c1.4-4.4,4.7-7.7,8.7-9.1c-1.5,7.1,2.6,14.3,9.6,16.5C295.5,545,298.7,544.8,301.5,543.8z"/>
	<path class="st30" d="M301.1,545.4c-2.5,7.4-10.4,11.5-17.8,9.1c-7.5-2.4-11.6-10.4-9.2-17.9c0.5-1.6,1.2-3.1,2.2-4.3
		c0,0.1-0.1,0.1-0.1,0.2c-2.4,7.5,1.7,15.6,9.3,17.9C291.4,552.3,297.5,550.1,301.1,545.4z"/>
	<path class="st31" d="M298.5,540.3c-1,1-2.3-2.1-5-5c-2.7-2.9-5.9-4.6-4.8-5.6c1-1,5.2-0.6,7.9,2.4
		C299.3,534.9,299.5,539.3,298.5,540.3z"/>
	<path class="st5" d="M226.6,585.3L226.6,585.3c-32.9-3-59.6-29-63.1-62.5L140,298.2c10.3,4,20.7,7.4,31.1,10.2
		c4.7,1.3,9.4,2.5,14.1,3.6h0C185.2,312,171.2,509,226.6,585.3z"/>
	<path class="st6" d="M373.4,298.6l-24.3,224.5c-3.9,35.7-33.8,62.7-69.5,62.6l-6.3,0c34.9-39.5,37.7-145.6,31.9-269.7
		C327.8,312.5,350.5,306.7,373.4,298.6z"/>
</g>
<g>
	<path d="M473.7,565.8v-42.7H489c5.5,0,9.7,1,12.5,3c2.9,2,4.3,4.9,4.3,8.8c0,2.2-0.5,4.1-1.5,5.7c-1,1.6-2.5,2.7-4.5,3.5
		c2.2,0.6,3.9,1.7,5.1,3.3c1.2,1.6,1.8,3.6,1.8,5.9c0,4.2-1.3,7.3-4,9.4c-2.6,2.1-6.6,3.2-11.8,3.2H473.7z M484,540.9h5.4
		c2.2,0,3.8-0.4,4.8-1.2c1-0.8,1.4-2,1.4-3.6c0-1.8-0.5-3.1-1.6-3.9c-1-0.8-2.7-1.2-5-1.2h-5V540.9z M484,547.7v10.2h6.7
		c1.9,0,3.3-0.4,4.3-1.3s1.5-2,1.5-3.6c0-3.6-1.8-5.3-5.3-5.4H484z"/>
	<path d="M545.8,523.2v27.9c0,3.2-0.7,5.9-2,8.2s-3.3,4.1-5.8,5.3c-2.5,1.2-5.5,1.8-8.9,1.8c-5.2,0-9.3-1.3-12.3-4
		s-4.5-6.4-4.6-11.1v-28.1h10.3v28.3c0.1,4.7,2.3,7,6.5,7c2.1,0,3.7-0.6,4.8-1.8c1.1-1.2,1.6-3.1,1.6-5.7v-27.9H545.8z"/>
	<path d="M552.2,565.8v-42.7h15.3c5.5,0,9.7,1,12.5,3c2.9,2,4.3,4.9,4.3,8.8c0,2.2-0.5,4.1-1.5,5.7c-1,1.6-2.5,2.7-4.5,3.5
		c2.2,0.6,3.9,1.7,5.1,3.3c1.2,1.6,1.8,3.6,1.8,5.9c0,4.2-1.3,7.3-4,9.4c-2.6,2.1-6.6,3.2-11.8,3.2H552.2z M562.5,540.9h5.4
		c2.2,0,3.8-0.4,4.8-1.2c1-0.8,1.4-2,1.4-3.6c0-1.8-0.5-3.1-1.6-3.9c-1-0.8-2.7-1.2-5-1.2h-5V540.9z M562.5,547.7v10.2h6.7
		c1.9,0,3.3-0.4,4.3-1.3s1.5-2,1.5-3.6c0-3.6-1.8-5.3-5.3-5.4H562.5z"/>
	<path d="M590.9,565.8v-42.7h15.3c5.5,0,9.7,1,12.5,3c2.9,2,4.3,4.9,4.3,8.8c0,2.2-0.5,4.1-1.5,5.7c-1,1.6-2.5,2.7-4.5,3.5
		c2.2,0.6,3.9,1.7,5.1,3.3c1.2,1.6,1.8,3.6,1.8,5.9c0,4.2-1.3,7.3-4,9.4c-2.6,2.1-6.6,3.2-11.8,3.2H590.9z M601.2,540.9h5.4
		c2.2,0,3.8-0.4,4.8-1.2c1-0.8,1.4-2,1.4-3.6c0-1.8-0.5-3.1-1.6-3.9c-1-0.8-2.7-1.2-5-1.2h-5V540.9z M601.2,547.7v10.2h6.7
		c1.9,0,3.3-0.4,4.3-1.3s1.5-2,1.5-3.6c0-3.6-1.8-5.3-5.3-5.4H601.2z"/>
	<path d="M639.9,557.9h17.9v7.9h-28.2v-42.7h10.3V557.9z"/>
	<path d="M688.6,547.7h-16.2v10.2h19.1v7.9h-29.4v-42.7h29.4v7.9h-19.2v9h16.2V547.7z"/>
	<path d="M742.4,531.1h-12.8v34.7h-10.3v-34.7h-12.6v-7.9h35.7V531.1z"/>
	<path d="M773.2,547.7H757v10.2h19.1v7.9h-29.4v-42.7h29.4v7.9H757v9h16.2V547.7z"/>
	<path d="M804.5,557.8h-14.1l-2.5,8h-11l15.6-42.7h9.7l15.8,42.7h-11L804.5,557.8z M792.9,549.9h9.2l-4.6-14.8L792.9,549.9z"/>
	<path d="M871.1,560.5c-1.6,1.8-3.9,3.2-6.9,4.2s-6.4,1.6-10,1.6c-5.6,0-10-1.7-13.4-5.1c-3.3-3.4-5.1-8.2-5.4-14.3l0-3.7
		c0-4.2,0.7-7.9,2.2-11c1.5-3.1,3.6-5.5,6.4-7.2c2.8-1.7,6-2.5,9.6-2.5c5.3,0,9.4,1.2,12.4,3.6c2.9,2.4,4.7,6.1,5.1,10.9h-9.9
		c-0.4-2.4-1.1-4.1-2.3-5.1c-1.2-1-2.8-1.5-5-1.5c-2.6,0-4.6,1.1-6,3.3c-1.4,2.2-2.1,5.3-2.1,9.4v2.6c0,4.3,0.7,7.5,2.2,9.6
		c1.5,2.1,3.7,3.2,6.9,3.2c2.7,0,4.7-0.6,6-1.8v-6.6h-7.1V543h17.4V560.5z"/>
	<path d="M903.5,547.7h-16.2v10.2h19.1v7.9H877v-42.7h29.4v7.9h-19.2v9h16.2V547.7z"/>
	<path d="M946.2,565.8H936l-15.1-26.5v26.5h-10.3v-42.7h10.3l15.1,26.5v-26.5h10.3V565.8z"/>
	<path d="M979.2,547.7H963v10.2h19.1v7.9h-29.4v-42.7h29.4v7.9H963v9h16.2V547.7z"/>
	<path d="M1002.2,550.7h-5.6v15.1h-10.3v-42.7h16.8c5.1,0,9,1.1,11.9,3.4c2.9,2.2,4.3,5.4,4.3,9.5c0,3-0.6,5.4-1.8,7.4
		s-3.1,3.5-5.6,4.7l8.9,17.2v0.4h-11L1002.2,550.7z M996.6,542.8h6.5c2,0,3.4-0.5,4.4-1.5c1-1,1.5-2.5,1.5-4.3
		c0-1.8-0.5-3.3-1.5-4.3s-2.5-1.6-4.4-1.6h-6.5V542.8z"/>
	<path d="M1049.7,557.8h-14.1l-2.5,8h-11l15.6-42.7h9.7l15.8,42.7h-11L1049.7,557.8z M1038,549.9h9.2l-4.6-14.8L1038,549.9z"/>
	<path d="M1096.3,531.1h-12.8v34.7h-10.3v-34.7h-12.6v-7.9h35.7V531.1z"/>
	<path d="M1135.9,545.4c0,4.2-0.8,7.8-2.3,11c-1.5,3.2-3.7,5.7-6.6,7.4s-6.1,2.6-9.7,2.6s-6.9-0.8-9.7-2.5s-5-4.1-6.6-7.2
		c-1.6-3.1-2.4-6.7-2.5-10.7v-2.4c0-4.2,0.8-7.9,2.3-11.1c1.5-3.2,3.7-5.7,6.6-7.4c2.9-1.7,6.1-2.6,9.8-2.6c3.6,0,6.8,0.9,9.7,2.6
		c2.8,1.7,5,4.2,6.6,7.3c1.6,3.2,2.4,6.8,2.4,10.9V545.4z M1125.5,543.6c0-4.2-0.7-7.5-2.1-9.7c-1.4-2.2-3.4-3.3-6.1-3.3
		c-5.2,0-7.9,3.9-8.2,11.6l0,3.1c0,4.2,0.7,7.4,2.1,9.6c1.4,2.2,3.4,3.4,6.2,3.4c2.6,0,4.6-1.1,6-3.3c1.4-2.2,2.1-5.4,2.1-9.5V543.6
		z"/>
	<path d="M1157.1,550.7h-5.6v15.1h-10.3v-42.7h16.8c5.1,0,9,1.1,11.9,3.4c2.9,2.2,4.3,5.4,4.3,9.5c0,3-0.6,5.4-1.8,7.4
		s-3.1,3.5-5.6,4.7l8.9,17.2v0.4h-11L1157.1,550.7z M1151.5,542.8h6.5c2,0,3.4-0.5,4.4-1.5c1-1,1.5-2.5,1.5-4.3
		c0-1.8-0.5-3.3-1.5-4.3s-2.5-1.6-4.4-1.6h-6.5V542.8z"/>
</g>
</svg>
