<?xml version="1.0" encoding="utf-8"?>
<svg version="1.1" id="Calque_1" xmlns="http://www.w3.org/2000/svg" xmlns:xlink="http://www.w3.org/1999/xlink" x="0px" y="0px"
	 viewBox="0 0 2560 1600" style="enable-background:new 0 0 2560 1600;" xml:space="preserve">
<style type="text/css">
	.st0{fill:#ABABBA;}
	.st1{fill:#404162;}
	.st2{fill:#F2F2F4;}
	.st3{fill:none;stroke:#ABABBA;stroke-width:2.9691;stroke-linecap:round;stroke-linejoin:round;stroke-miterlimit:10;}
	.st4{opacity:0.52;fill:#CBCCD5;enable-background:new    ;}
	.st5{fill:#BABBC6;}
	.st6{fill:none;stroke:#39B54A;stroke-width:8.0475;stroke-linecap:round;stroke-linejoin:round;stroke-miterlimit:10;}
	.st7{fill:#0000FF;}
	.st8{opacity:0.73;fill:#404162;enable-background:new    ;}
	.st9{fill:#55475E;}
	.st10{fill:#252127;}
	.st11{fill:#F2F2F2;}
	.st12{fill:#333333;}
	.st13{fill:#FFFFFF;}
	.st14{fill:#535472;}
	.st15{fill:#39B54A;}
	.st16{fill:#808080;}
</style>
<rect x="1919" y="0" class="st0" width="641" height="1600"/>
<g id="bubble_1_">
	<path class="st1" d="M1697.3,1418.9c-2.5,8-11.1,12.5-19.1,9.9c-8-2.5-12.4-11.1-9.9-19.2c2.5-8,11.1-12.5,19.1-9.9
		C1695.4,1402.2,1699.8,1410.8,1697.3,1418.9z"/>
	<path class="st1" d="M1641.8,1358.8c-2.8,9-12.4,14-21.4,11.1c-9-2.8-13.9-12.5-11.1-21.5s12.4-14,21.4-11.1
		C1639.7,1340.1,1644.7,1349.8,1641.8,1358.8z"/>
	<path class="st1" d="M1528.5,1394.8c-2.8,8.9-12.3,13.8-21.1,11c-8.9-2.8-13.7-12.3-10.9-21.2c2.8-8.9,12.3-13.8,21.1-11
		C1526.4,1376.4,1531.3,1385.9,1528.5,1394.8z"/>
	<path class="st1" d="M1591,1405.1c-2,6.2-8.5,9.6-14.7,7.6c-6.1-2-9.5-8.5-7.6-14.7c2-6.2,8.5-9.6,14.7-7.6
		C1589.6,1392.3,1593,1398.9,1591,1405.1z"/>
	<path class="st1" d="M1557.9,1482.2c-2.4,7.6-10.5,11.9-18.1,9.5s-11.8-10.6-9.4-18.2s10.5-11.9,18.1-9.5
		S1560.4,1474.6,1557.9,1482.2z"/>
	<path class="st1" d="M1532.5,1319.9c-2.4,7.6-10.4,11.8-18,9.3c-7.5-2.4-11.7-10.5-9.3-18.1c2.4-7.6,10.4-11.8,18-9.4
		C1530.7,1304.2,1534.8,1312.3,1532.5,1319.9z"/>
	<path class="st1" d="M1651.2,1479.5c-3,9.6-13.3,15-22.8,11.9c-9.6-3.1-14.9-13.3-11.8-23c3-9.6,13.3-14.9,22.8-11.9
		C1648.9,1459.5,1654.2,1469.8,1651.2,1479.5z"/>
</g>
<g>
	<g id="background_2_">
		<path class="st2" d="M887.9,1341.7c1.9-9.8,6.1-19.1,12.1-27.1c4-5.3,8.7-9.9,14.1-13.9c11.3-8.2,24.7-12.5,38.6-12.5
			c14.1,0,27.5,4.4,38.8,12.7c5.3,3.9,10.1,8.6,14.1,13.9c6,8.1,10.1,17.3,12,27.2L887.9,1341.7z"/>
		<path class="st2" d="M918.1,1524.7c-5.5,0-10.5-3-13.2-7.9c-0.9-1.7-1.5-3.6-1.7-5.5l-16.6-149.6h-10.5c-3.9,0-7-3.2-7-7.1
			c0-0.3,0-0.5,0.1-0.8c0.4-3.6,3.4-6.2,7-6.2h4.3l144.8,0.3h4.3c3.9,0,7,3.2,7,7.1c0,0.3,0,0.6,0,0.8c-0.4,3.6-3.4,6.3-6.9,6.3
			H1019l-17.1,149.5c-0.3,2.7-1.3,5.2-2.9,7.3c-2.8,3.8-7.3,6.1-12,6.1L918.1,1524.7z"/>
	</g>
	<g id="border_2_">
		<path class="st3" d="M1025.2,1341.2l-144.8-0.3c1.2-14.1,6.4-27,14.4-37.7c4.4-5.8,9.6-10.9,15.5-15.2c12-8.7,26.7-13.8,42.6-13.8
			c15.9,0,30.6,5.2,42.5,13.9c5.9,4.3,11.1,9.5,15.5,15.3C1018.9,1314.2,1024.1,1327.1,1025.2,1341.2z"/>
		<path class="st3" d="M1043,1354.9c0,0.6,0,1.1-0.1,1.6c-0.8,6.8-6.5,12-13.5,12h-4.6l-16.4,143.7c-0.5,3.9-1.9,7.5-4.1,10.5
			c-4,5.3-10.3,8.7-17.3,8.7l-68.9-0.1c-8.1,0-15.2-4.5-18.9-11.3c-1.3-2.4-2.2-5.1-2.5-8l-15.9-143.8h-4.7
			c-7.5,0-13.5-6.1-13.5-13.7c0-0.5,0-1.1,0.1-1.6c0.8-6.8,6.5-12,13.5-12h4.3l144.8,0.3h4.2C1037,1341.2,1043,1347.3,1043,1354.9z"
			/>
		<path class="st3" d="M962.3,1274.9c6.1,0.8,9.2,2.3,9.2,4.2c0,2.7-8.3,4.9-18.6,4.8c-10.3,0-18.6-2.2-18.6-4.9
			c0-2.2,4.9-4,12.7-4.6"/>
	</g>
</g>
<g id="tea_1_">
	<path class="st4" d="M406,1325.4l-17.4,161.1c-2.8,25.6-24.3,45-49.8,44.9h-4.5l-29.1-0.1c-1.5,0-3-0.1-4.4-0.2l0,0
		c-23.6-2.1-42.7-20.8-45.2-44.9l-16.9-161.1c7.4,2.8,14.8,5.3,22.3,7.3c3.4,0.9,6.7,1.8,10.1,2.6l0,0c4.2,1,8.4,1.8,12.6,2.5h0.1
		c3.7,0.6,7.3,1.2,11,1.6c4.9,0.6,9.8,1,14.7,1.3c15.8,0.8,31.7,0,47.8-2.5C373.3,1335.4,389.6,1331.2,406,1325.4z"/>
	<path class="st5" d="M248.3,1418.4l7.1,67.8c2.7,25.6,24.1,45,49.7,45.1l33.6,0.1c25.6,0,47.1-19.3,49.8-44.9l6.2-58.1
		C342,1405.6,312.1,1405.7,248.3,1418.4z"/>
</g>
<g>
	<g id="bubbletea">
		<g id="background">
			<path class="st2" d="M780.5,389.3c5.2-26.6,16.4-51.7,32.8-73.6c10.7-14.3,23.6-26.9,38.2-37.6c30.6-22.2,66.9-33.9,104.7-33.9
				c38.3,0.1,74.6,12,105.2,34.4c14.4,10.6,27.3,23.3,38.2,37.8c16.3,21.8,27.4,47,32.6,73.7L780.5,389.3z"/>
			<path class="st2" d="M862.2,885.4c-14.9,0-28.5-8.2-35.7-21.4c-2.5-4.6-4.1-9.7-4.7-15l-44.9-405.5l-28.4-0.1
				c-10.5,0-19-8.6-18.9-19.1c0-0.7,0-1.4,0.1-2.2c1.1-9.7,9.3-16.9,18.9-16.9h11.5l392.5,0.7h11.5c10.5,0,19,8.6,18.9,19.1
				c0,0.9,0,1.6-0.1,2.1c-1.1,9.7-9.2,17-18.8,17h-28.5l-46.2,405.3c-0.9,7.2-3.5,14.1-7.8,19.8c-7.7,10.4-19.9,16.5-32.6,16.5
				L862.2,885.4z"/>
		</g>
		<g id="tea">
			<path class="st4" d="M1115.2,470.3l-33.1,305.8c-5.2,48.6-46.1,85.4-94.6,85.3h-8.6l-55.3-0.1c-2.8,0-5.6-0.1-8.4-0.4h-0.1
				c-44.8-4-81.1-39.5-85.9-85.2l-32-306c14.1,5.4,28.2,10,42.3,13.9c6.4,1.8,12.8,3.4,19.2,4.9l0,0c8,1.8,16,3.4,23.9,4.7h0.2
				c7,1.2,13.9,2.2,20.9,3c9.3,1.1,18.6,1.9,27.9,2.4c30,1.6,60.3,0,90.7-4.7C1053.1,489.3,1084.1,481.4,1115.2,470.3z"/>
			<path class="st5" d="M815.8,646.9l13.5,128.8c5.1,48.6,45.8,85.5,94.3,85.6l63.8,0.1c48.6,0.1,89.4-36.7,94.7-85.3l11.7-110.4
				C993.5,622.6,936.8,622.9,815.8,646.9z"/>
		</g>
		<g id="border">
			<path class="st6" d="M1152.6,388.1l-392.5-0.7c3.3-38.2,17.4-73.3,39.1-102.2c11.8-15.8,26-29.7,42-41.3
				c32.5-23.6,72.4-37.4,115.5-37.3s82.9,14.1,115.3,37.8c16,11.6,30,25.7,41.9,41.5C1135.5,314.8,1149.4,349.9,1152.6,388.1z"/>
			<path class="st6" d="M1200.8,425.1c0,1.5-0.1,2.9-0.2,4.3c-2.2,18.4-17.7,32.6-36.5,32.5h-12.6L1107,851.5
				c-1.2,10.7-5.2,20.4-11.2,28.4c-10.7,14.5-27.9,23.7-46.9,23.6l-186.7-0.3c-21.9,0-41.2-12.3-51.2-30.7
				c-3.5-6.6-5.9-13.8-6.7-21.6l-43.1-389.6h-12.6c-20.3,0-36.7-16.6-36.6-37c0-1.5,0.1-2.9,0.3-4.4c2.2-18.3,17.7-32.5,36.5-32.5
				h11.5l392.5,0.7h11.5C1184.4,388.1,1200.8,404.7,1200.8,425.1z"/>
			<path class="st6" d="M982.1,208.4c16.5,2.2,25,6.2,25,11.4c0,7.3-22.6,13.2-50.5,13.1c-27.9,0-50.5-6-50.5-13.3
				c0-6,13.4-10.9,34.3-12.5"/>
		</g>
		<g id="bubble">
			<path class="st7" d="M1065.8,741.8c-2.7,8.6-11.8,13.3-20.3,10.6s-13.2-11.9-10.5-20.4c2.7-8.6,11.8-13.3,20.3-10.6
				S1068.5,733.3,1065.8,741.8z"/>
			<path class="st7" d="M1006.7,677.9c-3,9.6-13.2,14.9-22.8,11.8c-9.5-3-14.8-13.3-11.8-22.9c3-9.6,13.2-14.9,22.8-11.9
				C1004.5,658,1009.8,668.3,1006.7,677.9z"/>
			<path class="st7" d="M886.1,716.2c-3,9.5-13.1,14.7-22.4,11.7c-9.4-3-14.6-13.1-11.6-22.6s13.1-14.7,22.4-11.7
				C883.9,696.7,889.1,706.8,886.1,716.2z"/>
			<path class="st7" d="M952.6,727.2c-2.1,6.6-9,10.2-15.6,8.1c-6.5-2.1-10.1-9.1-8.1-15.7c2.1-6.6,9-10.2,15.6-8.1
				C951.1,713.6,954.7,720.6,952.6,727.2z"/>
			<path class="st7" d="M917.4,809.3c-2.6,8.1-11.2,12.6-19.3,10.1s-12.6-11.3-10-19.4c2.6-8.1,11.2-12.6,19.3-10.1
				C915.5,792.5,920,801.2,917.4,809.3z"/>
			<path class="st7" d="M890.3,636.5c-2.6,8.1-11.1,12.5-19.1,10c-8-2.6-12.4-11.2-9.9-19.2c2.6-8.1,11.1-12.5,19.1-10
				C888.4,619.8,892.8,628.4,890.3,636.5z"/>
			<path class="st7" d="M1016.7,806.4c-3.2,10.2-14.1,15.9-24.3,12.7s-15.8-14.2-12.6-24.4s14.1-15.9,24.3-12.7
				C1014.3,785.2,1019.9,796.1,1016.7,806.4z"/>
		</g>
	</g>
	<g>
		<path class="st8" d="M978.7,218.1L899.2,790c0,0-5.6,8.3-20.1,6.2c-14.4-2.1-20.2-11.9-20.2-11.9l78.7-566c5.9,0.7,12.4,1,19.2,1
			C964.7,219.4,972.1,219,978.7,218.1z"/>
		<path class="st9" d="M991.3,127l-9.3,67.1l-3.1,22.8c-6.6,0.8-14,1.3-21.9,1.3c-6.8,0-13.3-0.3-19.2-1l3.4-24.2l9.9-71.6
			L991.3,127z"/>
		<path class="st10" d="M990.9,121c2.1,10.2-5,19.5-15.9,20.6c-10.9,1.2-21.4-6.2-23.6-16.4c-2.1-10.2,5-19.5,15.9-20.6
			C978.3,103.4,988.8,110.7,990.9,121z"/>
	</g>
</g>
<g>
	<g>
		<g>
			<rect x="2205" y="439.2" class="st11" width="328.5" height="71.3"/>
			<g>
				<path class="st12" d="M2294.8,467.5h-8.2v22.8h-3.4v-22.8h-8.2v-2.8h19.8L2294.8,467.5L2294.8,467.5z"/>
				<path class="st12" d="M2301.3,473.7c1.4-1.8,3.3-2.7,5.6-2.7c4,0,6,2.3,6.1,6.8v12.6h-3.3v-12.6c0-1.4-0.3-2.4-0.9-3
					s-1.6-1-2.9-1c-1.1,0-2,0.3-2.8,0.8s-1.4,1.3-1.9,2.2v13.6h-3.3v-27h3.3L2301.3,473.7L2301.3,473.7z"/>
				<path class="st12" d="M2325.8,490.7c-2.6,0-4.7-0.8-6.3-2.5s-2.4-4-2.4-6.8v-0.6c0-1.9,0.4-3.6,1.1-5.1s1.7-2.6,3-3.5
					s2.7-1.3,4.2-1.3c2.5,0,4.4,0.8,5.8,2.4s2.1,4,2.1,7v1.4h-12.9c0,1.9,0.6,3.4,1.6,4.5s2.4,1.7,4,1.7c1.1,0,2.1-0.2,2.9-0.7
					s1.5-1.1,2.1-1.9l2,1.5C2331.3,489.5,2329,490.7,2325.8,490.7z M2325.4,473.7c-1.3,0-2.4,0.5-3.3,1.4s-1.4,2.3-1.7,4h9.5v-0.2
					c-0.1-1.7-0.5-2.9-1.3-3.8S2326.7,473.7,2325.4,473.7z M2326.9,463.4h3.9l-4.7,5.2h-2.6L2326.9,463.4z"/>
				<path class="st12" d="M2350.7,464.8l8.4,20.9l8.4-20.9h4.4v25.6h-3.4v-10l0.3-10.8l-8.4,20.7h-2.6l-8.4-20.7l0.3,10.7v10h-3.4
					v-25.6L2350.7,464.8L2350.7,464.8z"/>
				<path class="st12" d="M2389,490.4c-0.2-0.4-0.3-1-0.5-2c-1.5,1.6-3.3,2.4-5.4,2.4c-1.9,0-3.4-0.5-4.6-1.6s-1.8-2.4-1.8-4
					c0-2,0.8-3.5,2.3-4.6s3.6-1.6,6.4-1.6h3.2v-1.5c0-1.1-0.3-2-1-2.7s-1.7-1-3-1c-1.2,0-2.1,0.3-2.9,0.9s-1.2,1.3-1.2,2.1h-3.3
					c0-0.9,0.3-1.9,1-2.8s1.6-1.6,2.7-2.1s2.4-0.8,3.8-0.8c2.2,0,3.9,0.5,5.2,1.6s1.9,2.6,1.9,4.5v8.8c0,1.7,0.2,3.1,0.7,4.2v0.3
					L2389,490.4L2389,490.4z M2383.6,487.9c1,0,2-0.3,2.9-0.8s1.6-1.2,2-2.1v-3.9h-2.5c-4,0-6,1.2-6,3.5c0,1,0.3,1.8,1,2.4
					S2382.6,487.9,2383.6,487.9z"/>
				<path class="st12" d="M2401.3,466.8v4.6h3.6v2.5h-3.6v11.8c0,0.8,0.2,1.3,0.5,1.7c0.3,0.4,0.9,0.6,1.6,0.6
					c0.4,0,0.9-0.1,1.5-0.2v2.6c-0.9,0.2-1.7,0.3-2.5,0.3c-1.5,0-2.5-0.4-3.3-1.3s-1.1-2.1-1.1-3.7v-11.8h-3.5v-2.5h3.5v-4.6H2401.3
					z"/>
				<path class="st12" d="M2416.3,488.1c1.2,0,2.2-0.4,3-1.1s1.3-1.6,1.4-2.6h3.1c-0.1,1.1-0.4,2.1-1.1,3.1s-1.6,1.8-2.8,2.4
					s-2.4,0.9-3.7,0.9c-2.6,0-4.6-0.9-6.2-2.6s-2.3-4.1-2.3-7.1v-0.5c0-1.9,0.3-3.5,1-4.9s1.7-2.6,2.9-3.4s2.8-1.2,4.5-1.2
					c2.1,0,3.9,0.6,5.3,1.9s2.2,2.9,2.3,5h-3.1c-0.1-1.2-0.6-2.2-1.4-3s-1.9-1.2-3.1-1.2c-1.7,0-2.9,0.6-3.8,1.8s-1.4,2.9-1.4,5.2
					v0.6c0,2.2,0.5,3.9,1.4,5.1S2414.6,488.1,2416.3,488.1z"/>
				<path class="st12" d="M2430.7,473.7c1.4-1.8,3.3-2.7,5.6-2.7c4,0,6,2.3,6.1,6.8v12.6h-3.3v-12.6c0-1.4-0.3-2.4-0.9-3
					s-1.6-1-2.9-1c-1.1,0-2,0.3-2.8,0.8s-1.4,1.3-1.9,2.2v13.6h-3.3v-27h3.3L2430.7,473.7L2430.7,473.7z"/>
				<path class="st12" d="M2459,490.4c-0.2-0.4-0.3-1-0.5-2c-1.5,1.6-3.3,2.4-5.4,2.4c-1.9,0-3.4-0.5-4.6-1.6s-1.8-2.4-1.8-4
					c0-2,0.8-3.5,2.3-4.6s3.6-1.6,6.4-1.6h3.2v-1.5c0-1.1-0.3-2-1-2.7s-1.7-1-3-1c-1.2,0-2.1,0.3-2.9,0.9s-1.2,1.3-1.2,2.1h-3.3
					c0-0.9,0.3-1.9,1-2.8s1.6-1.6,2.7-2.1s2.4-0.8,3.8-0.8c2.2,0,3.9,0.5,5.2,1.6s1.9,2.6,1.9,4.5v8.8c0,1.7,0.2,3.1,0.7,4.2v0.3
					L2459,490.4L2459,490.4z M2453.6,487.9c1,0,2-0.3,2.9-0.8s1.6-1.2,2-2.1v-3.9h-2.5c-4,0-6,1.2-6,3.5c0,1,0.3,1.8,1,2.4
					S2452.6,487.9,2453.6,487.9z"/>
			</g>
		</g>
		<g>
			<path class="st11" d="M1981.5,495.7h-7.5l-14.5-23.8v23.8h-7.5v-36.2h7.5l14.5,23.8v-23.8h7.4L1981.5,495.7L1981.5,495.7z"/>
			<path class="st11" d="M2017.7,478.5c0,3.6-0.6,6.7-1.9,9.4c-1.3,2.7-3.1,4.8-5.4,6.2c-2.3,1.5-5,2.2-8.1,2.2c-3,0-5.7-0.7-8-2.2
				c-2.4-1.4-4.2-3.5-5.5-6.2s-1.9-5.7-2-9.2v-1.8c0-3.6,0.6-6.7,1.9-9.4s3.1-4.8,5.4-6.2s5-2.2,8-2.2s5.7,0.7,8,2.2
				s4.2,3.5,5.4,6.2s1.9,5.8,1.9,9.4v1.6H2017.7z M2010.2,476.8c0-3.8-0.7-6.7-2-8.6s-3.3-3-5.8-3s-4.4,1-5.8,2.9s-2,4.8-2.1,8.6
				v1.8c0,3.7,0.7,6.6,2,8.6c1.4,2,3.3,3.1,5.9,3.1c2.5,0,4.4-1,5.8-2.9c1.3-2,2-4.8,2-8.6V476.8z"/>
			<path class="st11" d="M2032.9,459.6l9.3,26.2l9.2-26.2h9.8v36.2h-7.5v-9.9l0.7-17.1l-9.8,26.9h-5.1l-9.7-26.9l0.7,17v9.9h-7.5
				v-36.2h9.9V459.6z"/>
		</g>
	</g>
	<g>
		<g>
			<path class="st11" d="M1979.5,898h-11.1v30.1h-7.5V898H1950v-6h29.5V898z"/>
			<path class="st11" d="M2001.1,920.7H1988l-2.5,7.5h-7.9l13.5-36.2h6.9l13.5,36.2h-7.9L2001.1,920.7z M1990.1,914.7h9l-4.5-13.5
				L1990.1,914.7z"/>
			<path class="st11" d="M2022.9,928.2h-7.5V892h7.5V928.2z"/>
			<path class="st11" d="M2037.2,922.2h15.8v6h-23.3V892h7.5V922.2z"/>
			<path class="st11" d="M2064.8,922.2h15.8v6h-23.3V892h7.5V922.2z"/>
			<path class="st11" d="M2106.6,912.5h-14.3v9.7h16.8v6h-24.2V892h24.2v6h-16.7v8.6h14.3v5.9H2106.6z"/>
		</g>
		<g>
			<rect x="2205" y="907.7" class="st13" width="329" height="6.2"/>
			<circle class="st14" cx="2339.3" cy="910.1" r="29.3"/>
		</g>
	</g>
	<g>
		<g>
			<rect x="2462" y="574.5" class="st15" width="71.3" height="71.3"/>
			<g>
				<path class="st11" d="M1980.2,623.7c-1.3,1.6-3.2,2.9-5.7,3.7c-2.5,0.9-5.2,1.3-8.1,1.3c-3.1,0-5.9-0.7-8.2-2s-4.2-3.3-5.5-5.9
					s-1.9-5.7-2-9.2v-2.5c0-3.6,0.6-6.7,1.8-9.4s3-4.7,5.3-6.1s5-2.1,8.1-2.1c4.3,0,7.6,1,10.1,3.1s3.8,5,4.3,8.9h-7.3
					c-0.3-2.1-1.1-3.6-2.2-4.5c-1.1-1-2.7-1.4-4.7-1.4c-2.5,0-4.5,1-5.8,2.9s-2,4.7-2,8.5v2.3c0,3.8,0.7,6.7,2.2,8.6
					c1.4,1.9,3.6,2.9,6.3,2.9c2.8,0,4.8-0.6,6-1.8v-6.2h-6.8v-5.5h14.2L1980.2,623.7L1980.2,623.7z"/>
				<path class="st11" d="M2016,611c0,3.6-0.6,6.7-1.9,9.4s-3.1,4.8-5.4,6.2c-2.3,1.5-5,2.2-8.1,2.2c-3,0-5.7-0.7-8-2.2
					c-2.4-1.4-4.2-3.5-5.5-6.2s-1.9-5.8-2-9.2v-1.8c0-3.6,0.6-6.7,1.9-9.4s3.1-4.8,5.4-6.2s5-2.2,8-2.2s5.7,0.7,8,2.2
					c2.3,1.4,4.2,3.5,5.4,6.2s1.9,5.8,1.9,9.4v1.6H2016z M2008.4,609.3c0-3.8-0.7-6.7-2-8.6c-1.4-2-3.3-3-5.8-3s-4.4,1-5.8,2.9
					s-2,4.8-2.1,8.6v1.8c0,3.7,0.7,6.6,2,8.6c1.4,2,3.3,3.1,5.9,3.1c2.5,0,4.4-1,5.8-2.9c1.3-2,2-4.8,2-8.6V609.3z"/>
				<path class="st11" d="M2021.4,628.2V592h12.7c4.4,0,7.7,0.8,10,2.5s3.4,4.1,3.4,7.4c0,1.8-0.5,3.3-1.4,4.7
					c-0.9,1.3-2.2,2.3-3.8,3c1.9,0.5,3.3,1.4,4.4,2.8c1.1,1.4,1.6,3.1,1.6,5.2c0,3.5-1.1,6.1-3.3,7.9s-5.4,2.7-9.5,2.7L2021.4,628.2
					L2021.4,628.2z M2028.8,607.2h5.5c3.8-0.1,5.6-1.6,5.6-4.5c0-1.6-0.5-2.8-1.4-3.5c-1-0.7-2.5-1.1-4.5-1.1h-5.2V607.2z
					 M2028.8,612.5v9.8h6.4c1.8,0,3.1-0.4,4.1-1.3s1.5-2,1.5-3.5c0-3.3-1.7-5-5.1-5H2028.8z"/>
				<path class="st11" d="M2075.6,612.5h-14.3v9.7h16.8v6h-24.2V592h24.2v6h-16.7v8.6h14.3v5.9H2075.6z"/>
				<path class="st11" d="M2089.9,622.2h15.8v6h-23.3V592h7.5V622.2z"/>
				<path class="st11" d="M2131.7,612.5h-14.3v9.7h16.8v6H2110V592h24.2v6h-16.7v8.6h14.3v5.9H2131.7z"/>
				<path class="st11" d="M2166.3,598.1h-11.1v30.1h-7.5v-30.1h-10.9v-6h29.5V598.1z"/>
			</g>
		</g>
		<g>
			<rect x="2461" y="659.5" class="st5" width="71.3" height="71.3"/>
			<g>
				<path class="st11" d="M1977.8,683.1h-11.1v30.1h-7.5v-30.1h-10.9v-6h29.5V683.1z"/>
				<path class="st11" d="M2003.8,697.5h-14.3v9.7h16.8v6h-24.2V677h24.2v6h-16.7v8.6h14.3v5.9H2003.8z"/>
				<path class="st11" d="M2031.1,705.8H2018l-2.5,7.5h-7.9l13.5-36.2h6.9l13.5,36.2h-7.9L2031.1,705.8z M2020,699.7h9l-4.5-13.5
					L2020,699.7z"/>
			</g>
		</g>
		<g>
			<rect x="2461" y="744.5" class="st7" width="71.3" height="71.3"/>
			<g>
				<path class="st11" d="M1977.8,768.1h-11.1v30.1h-7.5v-30.1h-10.9v-6h29.5V768.1z"/>
				<path class="st11" d="M1999.5,790.8h-13.1l-2.5,7.5h-7.9l13.5-36.2h6.9l13.5,36.2h-7.9L1999.5,790.8z M1988.5,784.7h9l-4.5-13.5
					L1988.5,784.7z"/>
				<path class="st11" d="M2020.8,785.5v12.7h-7.5V762h14.1c2.7,0,5.1,0.5,7.2,1.5s3.6,2.4,4.8,4.2c1.1,1.8,1.7,3.9,1.7,6.2
					c0,3.5-1.2,6.3-3.6,8.4c-2.4,2-5.8,3.1-10.1,3.1L2020.8,785.5L2020.8,785.5z M2020.8,779.4h6.7c2,0,3.5-0.5,4.5-1.4
					s1.6-2.3,1.6-4c0-1.8-0.5-3.2-1.6-4.3s-2.5-1.7-4.3-1.7h-6.8L2020.8,779.4L2020.8,779.4z"/>
				<path class="st11" d="M2054,798.2h-7.5V762h7.5V798.2z"/>
				<path class="st11" d="M2090.7,781c0,3.6-0.6,6.7-1.9,9.4c-1.3,2.7-3.1,4.8-5.4,6.2c-2.3,1.5-5,2.2-8.1,2.2c-3,0-5.7-0.7-8-2.2
					c-2.4-1.4-4.2-3.5-5.5-6.2s-1.9-5.8-2-9.2v-1.8c0-3.6,0.6-6.7,1.9-9.4s3.1-4.8,5.4-6.2c2.3-1.4,5-2.2,8-2.2s5.7,0.7,8,2.2
					c2.3,1.4,4.2,3.5,5.4,6.2s1.9,5.8,1.9,9.4v1.6H2090.7z M2083.1,779.3c0-3.8-0.7-6.7-2-8.6c-1.4-2-3.3-3-5.8-3s-4.4,1-5.8,2.9
					s-2,4.8-2.1,8.6v1.8c0,3.7,0.7,6.6,2,8.6c1.4,2,3.3,3.1,5.9,3.1c2.5,0,4.4-1,5.8-2.9c1.3-2,2-4.8,2-8.6L2083.1,779.3
					L2083.1,779.3z"/>
				<path class="st11" d="M2124.5,786.2c-0.3,3.9-1.7,7-4.3,9.2s-6,3.4-10.2,3.4c-4.6,0-8.3-1.6-10.9-4.7c-2.7-3.1-4-7.4-4-12.9V779
					c0-3.5,0.6-6.5,1.8-9.2c1.2-2.6,3-4.7,5.3-6.1c2.3-1.4,4.9-2.1,7.9-2.1c4.2,0,7.5,1.1,10.1,3.4s4,5.4,4.4,9.4h-7.5
					c-0.2-2.3-0.8-4-1.9-5.1s-2.8-1.6-5.1-1.6c-2.5,0-4.3,0.9-5.6,2.7c-1.2,1.8-1.9,4.5-1.9,8.3v2.7c0,3.9,0.6,6.8,1.8,8.6
					s3.1,2.7,5.6,2.7c2.3,0,4-0.5,5.2-1.6c1.1-1.1,1.8-2.7,2-4.9L2124.5,786.2L2124.5,786.2z"/>
				<path class="st11" d="M2149.8,790.8h-13.1l-2.5,7.5h-7.9l13.5-36.2h6.9l13.5,36.2h-7.9L2149.8,790.8z M2138.7,784.7h9l-4.5-13.5
					L2138.7,784.7z"/>
			</g>
		</g>
	</g>
</g>
<g>
	<path class="st16" d="M764.1,992.5c0.1,0.7-0.1,1.3-0.4,1.8c-0.3,0.5-0.7,1-1.2,1.4s-1.1,0.7-1.7,1c-0.6,0.3-1.2,0.4-1.8,0.5
		c-2,0.4-3.8,0.6-5.4,0.6c-1.6,0-3.2,0-4.8-0.1c-0.8,6.1-1.6,12.1-2.6,18c-0.9,6-1.9,12-2.9,18c-0.3,1.2-0.6,2.4-0.9,3.5
		c-0.4,1.1-0.8,2.3-1.3,3.4c-0.2,0.5-0.5,1-0.8,1.5s-0.6,1-1,1.4s-0.8,0.8-1.3,1.1s-1,0.5-1.6,0.5c-0.9,0.1-1.8-0.1-2.7-0.4
		s-1.6-0.7-2.3-1.3c-0.7-0.6-1.2-1.3-1.5-2.1c-0.4-0.8-0.5-1.7-0.3-2.7c0.1-1.4,0.3-2.7,0.4-4.1c0.2-1.3,0.4-2.7,0.7-4
		c0.5-2.6,1-5.2,1.6-7.8c0.6-2.6,1-5.2,1.3-7.8c0.3-2.9,0.4-5.9,0.5-8.8s-0.1-5.8-0.4-8.7c-1.9,0-3.8,0.1-5.6,0.2
		c-1.9,0.1-3.7,0.2-5.7,0.3c-0.3-0.1-0.6-0.2-0.8-0.4s-0.4-0.4-0.5-0.7s-0.3-0.5-0.4-0.8c-0.1-0.3-0.2-0.6-0.3-0.8
		c-0.5-1.3-0.7-2.6-0.6-3.9c0.1-0.6,0.4-1.2,0.8-1.6c0.4-0.5,0.8-0.8,1.3-1.1s1-0.5,1.6-0.7s1.1-0.3,1.7-0.3
		c3.1-0.3,6.2-0.6,9.2-0.9c3-0.3,6.1-0.5,9.2-0.8c2.3-0.2,4.7-0.3,7-0.3s4.7,0.1,7,0.2c0.8,0.2,1.6,0.5,2.3,0.9s1.4,0.9,1.9,1.6
		c0.5,0.6,1,1.2,1.5,1.9C763.9,990.9,764.1,991.6,764.1,992.5z"/>
	<path class="st16" d="M807.9,1039c-0.1,0.6-0.4,1.2-0.8,1.7s-0.8,1-1.4,1.4c-0.5,0.4-1.1,0.7-1.7,1c-0.6,0.3-1.2,0.5-1.8,0.5
		c-0.7,0.2-1.4,0.1-1.9-0.1s-1-0.6-1.5-1c-0.4-0.4-0.8-1-1-1.5c-0.3-0.6-0.5-1.2-0.6-1.8c-0.4-1.9-0.6-3.7-0.7-5.3
		c-0.1-1.6-0.1-3.2,0-4.7c0.1-1.1,0.1-2.2,0.1-3.4c-0.1-1.1-0.1-2.3,0-3.4c-1.5,0.1-2.9,0.2-4.4,0.2s-3,0.1-4.5,0.1
		c-0.9,0-1.7,0-2.6,0c-0.8,0-1.7-0.1-2.6-0.1c-0.2,1.3-0.4,2.5-0.6,3.7c-0.2,1.2-0.3,2.5-0.4,3.7c-0.1,0.9-0.1,1.8,0,2.7
		c0,0.9,0,1.8,0,2.7c0.1,0.8,0.1,1.7,0,2.6c0,0.9-0.1,1.8-0.1,2.6c0,0.7-0.1,1.3-0.4,1.8c-0.3,0.5-0.7,1-1.2,1.3
		c-0.5,0.4-1,0.6-1.6,0.7s-1.2,0.1-1.8-0.1c-1.4-0.2-2.6-0.8-3.4-1.7c-0.9-0.9-1.5-1.9-2-3.2c-0.4-1.2-0.7-2.5-0.9-3.9
		c-0.1-1.4-0.2-2.7-0.1-3.9c0.1-1.5,0.2-2.9,0.4-4.3s0.4-2.9,0.6-4.3c0.3-1.5,0.6-3,0.9-4.5c0.3-1.5,0.4-3,0.6-4.5
		c0.1-1.4,0.2-2.8,0.3-4.2s0.1-2.8,0.1-4.2s0.1-2.8,0.2-4.1c0.1-1.4,0.3-2.7,0.4-4.1c0.2-1.1,0.5-2.1,0.8-3.2
		c0.3-1.1,0.7-2.1,1.2-3.1c0.2-0.5,0.4-1,0.7-1.5s0.6-1,0.9-1.5c0.4-0.5,0.8-0.8,1.2-1.2c0.4-0.3,0.9-0.5,1.5-0.6
		c1.5-0.3,2.8-0.1,3.7,0.5s1.6,1.5,2.1,2.7c0.5,1.1,0.7,2.4,0.8,3.8c0.1,1.4,0,2.6-0.2,3.7c-0.3,2.5-0.6,4.9-0.9,7.4
		c-0.3,2.5-0.6,4.9-1,7.4c0.9,0.1,1.8,0.2,2.7,0.2s1.8,0,2.7,0c1.1,0,2.3,0,3.4-0.1s2.3-0.2,3.4-0.3c0-0.3,0-0.5,0-0.8
		c0-0.2,0-0.5,0-0.8c0.1-0.5,0.1-1,0.1-1.4c0-0.5,0.1-0.9,0.1-1.4c0.1-0.5,0.2-1,0.3-1.4c0-0.5,0.1-0.9,0.1-1.4c0.1-1,0.1-2,0-2.9
		c0-0.9,0-1.9,0-2.9c-0.1-1-0.1-2,0-3c0-1,0.1-2,0.1-3c0-0.7,0.1-1.6,0.3-2.5s0.5-1.7,0.9-2.4s1-1.3,1.7-1.8
		c0.7-0.4,1.5-0.6,2.5-0.4c1.2,0.1,2.3,0.4,3.2,1s1.6,1.4,2.1,2.3c0.5,0.9,0.9,2,1.1,3.1c0.2,1.1,0.3,2.3,0.2,3.3
		c-0.1,1.1-0.1,2.3-0.2,3.4c-0.1,1.1-0.1,2.3-0.3,3.4c-0.1,1.2-0.1,2.3-0.2,3.5c-0.1,1.2-0.2,2.4-0.2,3.6c-0.4,4.9-0.6,9.8-0.6,14.6
		s-0.1,9.7-0.1,14.6L807.9,1039z"/>
	<path class="st16" d="M862.6,1027.3c-0.8,1.4-1.8,2.7-3,3.7s-2.5,2-3.9,2.8s-2.8,1.6-4.3,2.4c-1.5,0.7-2.9,1.5-4.2,2.3
		c-1.5,0.7-2.9,1.4-4.4,2.1s-3,1.4-4.5,2s-3,1.1-4.6,1.4c-1.5,0.4-3.1,0.6-4.7,0.6c-1-0.1-2-0.3-2.9-0.7c-0.9-0.4-1.7-0.9-2.2-1.8
		c-0.7-0.8-1.1-1.7-1.4-2.6c-0.3-1-0.6-2-0.8-2.9c-0.5-2-0.8-4-0.9-6c-0.1-2-0.1-4.1,0-6.1c0.3-3.6,0.7-7.2,1.4-10.7
		s1.4-7.1,2.2-10.7c0.4-1.8,0.8-3.5,1.3-5.3c0.5-1.7,0.9-3.5,1.4-5.3c0.6-1,1.4-1.9,2.3-2.6c0.9-0.7,1.9-1.2,3-1.7
		c1.1-0.4,2.2-0.8,3.3-1.1s2.2-0.6,3.3-0.9c2.5-0.5,4.9-0.9,7.4-1.1c2.4-0.2,4.9-0.2,7.4,0c0.7,0.1,1.5,0.2,2.1,0.6
		c0.7,0.3,1.3,0.7,1.8,1.2s0.9,1.1,1.2,1.8s0.4,1.5,0.4,2.2c0,0.5-0.1,1.1-0.3,1.5c-0.2,0.5-0.5,0.9-0.8,1.3
		c-0.4,0.4-0.8,0.7-1.2,0.9c-0.5,0.2-1,0.4-1.5,0.5c-1.2,0.1-2.4,0.2-3.6,0.2c-1.2,0-2.4,0-3.6,0c-1.1,0-2.3,0.1-3.4,0.2
		c-1.1,0.1-2.2,0.4-3.3,0.8c-1.1,0.4-2.1,1-3,1.7s-1.6,1.6-1.8,2.8c-0.1,0.5-0.3,1-0.4,1.5c-0.1,0.5-0.2,1-0.2,1.5v0.5
		c1.5-0.1,3.1-0.4,4.6-0.7s3.1-0.7,4.6-1s3-0.5,4.5-0.8c1.5-0.2,3-0.3,4.6-0.3c0.8,0,1.6,0.1,2.3,0.3c0.7,0.3,1.4,0.6,1.9,1.1
		s0.9,1.1,1.2,1.8s0.3,1.5,0.1,2.3c0,0.7-0.2,1.4-0.5,2s-0.8,1.2-1.3,1.6c-0.5,0.5-1.1,0.9-1.8,1.2s-1.3,0.5-2,0.6
		c-1.5,0.2-3,0.4-4.5,0.5c-1.5,0.2-3,0.3-4.5,0.4c-1.4,0.2-2.9,0.4-4.3,0.7c-1.4,0.3-2.8,0.8-4.2,1.6c-0.6,0.4-1.2,0.9-1.6,1.5
		c-0.5,0.6-0.9,1.2-1.2,1.9s-0.6,1.4-0.7,2.1c-0.2,0.7-0.3,1.4-0.3,2.1c-0.1,1.4-0.1,2.7,0,4.1s0.2,2.6,0.5,3.9
		c1.9-0.6,3.8-1.4,5.6-2.3s3.6-1.8,5.4-2.7c1.8-0.9,3.7-1.8,5.7-2.5c1.9-0.7,3.9-1.1,5.9-1.3c0.7,0,1.4,0,2,0.2
		c0.7,0.1,1.3,0.4,1.9,0.7c0.6,0.3,1.1,0.7,1.5,1.2c0.5,0.5,0.8,1,1,1.7l0.2,0.6L862.6,1027.3z M850.3,970.1c0,0.4-0.1,0.8-0.2,1.1
		c-0.1,0.4-0.2,0.7-0.3,1.1c-0.4,1-0.8,2.1-1.3,3.3s-1.1,2.3-1.9,3.3s-1.6,1.8-2.6,2.5s-2.2,1-3.5,0.9c-0.8-0.1-1.4-0.4-1.9-1
		s-0.7-1.3-0.7-2.1c0.1-0.4,0.1-0.8,0.1-1.1s0.1-0.7,0.1-1.1c0.3-1.2,0.7-2.4,1.2-3.5c0.6-1.1,1.2-2.2,1.8-3.3
		c0.3-0.5,0.7-0.9,1.1-1.5c0.4-0.5,0.8-1,1.2-1.4c0.5-0.4,0.9-0.7,1.5-1c0.5-0.3,1.1-0.4,1.7-0.4c0.5,0,1,0.1,1.5,0.3
		s0.8,0.5,1.2,0.9c0.3,0.4,0.6,0.8,0.7,1.3S850.3,969.6,850.3,970.1z"/>
	<path class="st16" d="M955.5,1040.2c-0.3,0.6-0.6,1.1-1,1.6c-0.4,0.4-0.9,0.8-1.4,1.1s-1.1,0.6-1.7,0.8c-0.6,0.2-1.2,0.3-1.8,0.4
		c-0.7,0.1-1.5,0.1-2.2,0.1s-1.5-0.1-2.1-0.3c-0.6-0.5-1.1-1.1-1.4-1.8c-0.3-0.7-0.5-1.5-0.8-2.2c-1-4.1-1.6-8.3-1.7-12.5
		c-0.1-4.3-0.1-8.5,0.1-12.9c0.1-1.2,0.2-2.4,0.1-3.5c0-1.1,0-2.3,0.1-3.5c-2.2,3.3-4.1,6.8-5.7,10.3c-1.7,3.5-3.2,7.2-4.5,10.9
		c-0.4,0.9-0.8,1.9-1.2,2.8c-0.4,1-0.7,1.9-1,2.9c-0.2,0.4-0.4,0.8-0.7,1.2c-0.2,0.4-0.5,0.8-0.8,1.2c-0.3,0.4-0.7,0.7-1.1,0.9
		c-0.4,0.3-0.9,0.4-1.4,0.4c-0.9,0.1-1.7,0-2.5-0.2s-1.5-0.6-2.2-1c-0.7-0.5-1.2-1-1.7-1.7c-0.5-0.6-0.9-1.3-1.2-2.1
		c-0.5-1.3-1-2.7-1.3-4s-0.6-2.7-0.9-4.2c-0.2-1.4-0.4-2.9-0.6-4.3c-0.2-1.4-0.5-2.9-0.8-4.3v0.6c-0.1,0.6-0.2,1.3-0.2,1.9
		c0,0.6-0.1,1.3-0.3,1.9c0,0.6-0.1,1.2-0.1,1.8c-0.1,0.6-0.1,1.2-0.1,1.8c-0.1,0.8-0.1,1.6-0.2,2.4c-0.1,0.8-0.1,1.6,0,2.4
		c0,0.7,0,1.4,0.1,2.1s0.2,1.4,0.2,2.1c0.1,0.7,0.1,1.4,0.2,2.1c0.1,0.7,0.1,1.4,0,2.1c0,0.7-0.1,1.5-0.2,2.4
		c-0.2,0.8-0.5,1.6-0.9,2.3c-0.4,0.7-1,1.2-1.6,1.6c-0.7,0.4-1.5,0.5-2.4,0.3c-1.3-0.1-2.5-0.5-3.5-1.2c-1.1-0.7-1.8-1.5-2.4-2.6
		c-1.1-2.3-1.6-4.6-1.6-7c-0.3-2.9-0.4-5.7-0.3-8.6c0-2.9,0.2-5.8,0.5-8.7c0.2-2.7,0.5-5.3,1-7.9c0.5-2.6,1-5.2,1.7-7.8
		c0.4-1.4,0.9-2.8,1.4-4.2s1.1-2.8,1.9-4.1c0.3-0.6,0.7-1.3,1.1-2c0.4-0.7,0.8-1.3,1.3-1.9s1-1.1,1.6-1.5s1.3-0.7,2-0.9
		c1.1-0.2,2.2-0.1,3.1,0.3c0.9,0.4,1.7,0.9,2.4,1.7c0.7,0.7,1.3,1.6,1.7,2.5c0.5,0.9,0.8,1.9,1.1,2.8c0.5,2.3,0.9,4.5,1.3,6.8
		c0.4,2.2,0.9,4.5,1.4,6.7c0.1,0.6,0.3,1.1,0.5,1.7c0.2,0.5,0.4,1.1,0.6,1.6c1.4-2.5,2.9-4.9,4.3-7.3c1.5-2.4,2.9-4.9,4.5-7.3
		c0.7-0.9,1.4-2,2.1-3c0.7-1.1,1.5-2.1,2.3-3c0.8-1,1.7-1.8,2.7-2.5s2.1-1.2,3.3-1.4c1.6,0.1,2.9,0.5,4.1,1.2c1.2,0.7,2.2,1.5,3,2.5
		s1.5,2.2,2,3.5s0.9,2.7,1.1,4.1c0.3,1.4,0.4,2.8,0.5,4.3s0,2.8,0,4.2c0,0.9-0.1,1.8-0.2,2.7c-0.1,0.9-0.2,1.8-0.3,2.7
		c-0.2,0.9-0.3,1.8-0.4,2.7c-0.1,0.9-0.2,1.8-0.3,2.7c-0.2,2.2-0.2,4.3,0,6.4c0.2,2.1,0.4,4.2,0.7,6.3c0.3,2,0.5,3.9,0.7,5.9
		C955.5,1036.3,955.5,1038.2,955.5,1040.2z"/>
	<path class="st16" d="M1005.2,1037.1c-0.1,0.8-0.3,1.5-0.7,2.3c-0.3,0.8-0.8,1.5-1.3,2.1s-1.1,1.1-1.8,1.6
		c-0.7,0.4-1.4,0.7-2.3,0.8c-1,0.1-2,0.1-2.9,0c-1-0.2-1.7-0.7-2.3-1.5c-0.5-0.7-0.9-1.5-1.1-2.4c-0.2-0.9-0.3-1.8-0.4-2.7
		c0-1,0-2.1-0.1-3.1c-0.1-1.1-0.1-2.1-0.2-3.1c-0.6,0-1.2,0-1.8,0s-1.2,0-1.8,0s-1.3,0-1.9-0.1c-0.6-0.1-1.2-0.1-1.9,0
		c-1,0-2,0-3,0.1s-2,0.2-3,0.3c-0.5,1.4-0.9,2.7-1.4,4s-0.9,2.7-1.4,4c-0.2,0.5-0.5,1.1-0.8,1.7s-0.7,1.1-1.1,1.6
		c-0.4,0.5-0.9,0.9-1.4,1.2s-1.1,0.4-1.8,0.4c-1-0.1-1.9-0.4-2.7-0.9s-1.5-1.1-2-1.9c-0.3-0.8-0.6-1.7-0.7-2.7
		c-0.2-0.9-0.2-1.9-0.2-2.8c0.2-3.3,0.7-6.6,1.5-9.9c0.8-3.2,1.6-6.5,2.5-9.7c1-3.2,2-6.4,3.1-9.5s2.3-6.2,3.7-9.3
		c0.7-1.3,1.4-2.7,2.3-4.2c0.8-1.5,1.8-2.8,2.8-4s2.2-2.3,3.6-3.1c1.3-0.8,2.8-1.3,4.5-1.4c1.5,0,2.8,0.3,4,1c1.2,0.6,2.1,1.5,3,2.5
		c0.8,1,1.5,2.2,2,3.5s0.9,2.6,1.2,3.8c0.6,2.5,1.1,5.1,1.4,7.7c0.3,2.6,0.6,5.2,0.8,7.9c0.2,2.6,0.4,5.2,0.6,7.7
		c0.2,2.5,0.6,5.1,1.2,7.6c0.3,0.9,0.6,1.7,0.8,2.5c0.3,0.8,0.5,1.7,0.7,2.6s0.3,1.8,0.4,2.7
		C1005.5,1035.2,1005.4,1036.1,1005.2,1037.1z M991.8,1019.9c-0.1-1.9-0.1-3.8-0.3-5.6c-0.1-1.8-0.3-3.7-0.4-5.6
		c-0.2-1.8-0.4-3.5-0.7-5.3s-0.8-3.4-1.6-5c-1.2,1.6-2.2,3.3-2.9,5c-0.8,1.8-1.5,3.6-2,5.4c-0.6,1.8-1.1,3.7-1.5,5.6
		c-0.4,1.9-0.8,3.7-1.1,5.6c1.8,0,3.5,0,5.2,0C988.3,1020,990.1,1019.9,991.8,1019.9z"/>
	<path class="st16" d="M1052.8,991.7c-0.2,0.9-0.6,1.8-1.2,2.5c-0.6,0.8-1.4,1.3-2.4,1.4c-1,0.2-2,0.3-3.1,0.2s-2.1-0.1-3.1-0.1
		c-0.8-0.1-1.6-0.1-2.4,0s-1.6,0.2-2.4,0.6c-0.1,0.8-0.2,1.6-0.3,2.4c-0.1,0.8-0.2,1.6-0.3,2.4c-0.5,3.4-0.9,6.8-1.3,10.2
		s-0.8,6.8-1.2,10.2c-0.1,1.3-0.2,2.5-0.3,3.8c-0.1,1.2-0.2,2.5-0.4,3.8c-0.1,1.3-0.2,2.5-0.3,3.8c-0.1,1.3-0.3,2.5-0.4,3.8
		c-0.1,0.8-0.3,1.7-0.4,2.6c-0.2,1-0.4,1.9-0.8,2.7c-0.4,0.8-0.9,1.6-1.5,2.2s-1.5,1-2.5,1.1c-1.8-0.2-3.2-0.9-4.1-2.1
		s-1.5-2.5-1.9-4.1c-0.3-1.6-0.5-3.2-0.5-5c0-1.7,0.1-3.3,0.1-4.7c0.1-1.5,0.4-3.1,0.6-4.6c0.3-1.5,0.6-3,0.9-4.6
		c0.3-1.6,0.6-3.2,0.9-4.7s0.5-3.1,0.8-4.7c0.1-2.1,0.2-4.3,0.1-6.4c0-2.1-0.2-4.2-0.5-6.3c-0.7,0.1-1.3,0.2-2,0.3s-1.4,0.2-2.1,0.5
		c-0.7,0.1-1.3,0.1-1.9,0.3s-1.2,0.2-1.9,0.3c-1,0.1-1.9,0.1-2.8-0.1c-0.9-0.2-1.8-0.5-2.6-0.9s-1.3-1-1.7-1.7
		c-0.3-0.8-0.4-1.6-0.2-2.5c0.2-0.8,0.6-1.5,1.1-2.1s1.2-1,1.9-1.4s1.5-0.7,2.3-0.9s1.6-0.5,2.3-0.7c1-0.2,2-0.4,2.9-0.6
		c0.9-0.2,1.9-0.4,2.9-0.6c2.1-0.5,4.3-0.9,6.5-1.3c2.2-0.4,4.3-0.7,6.5-0.9c1.2-0.1,2.4-0.2,3.6-0.2s2.4,0,3.6,0c1,0.1,2,0.3,3,0.6
		s2,0.7,2.9,1.1c0.9,0.5,1.6,1.1,2.3,1.9C1052.1,989.8,1052.5,990.7,1052.8,991.7z"/>
	<path class="st16" d="M1100.4,1003.4c0.1,0.7,0,1.4-0.3,2.1c-0.2,0.7-0.6,1.4-1,2c-0.5,0.6-1,1-1.7,1.3s-1.4,0.4-2.2,0.3
		c-1.1,0.1-2.2-0.2-3-0.8c-0.9-0.6-1.6-1.4-2.1-2.3c-0.5-0.9-0.9-1.8-1.3-2.8c-0.4-0.9-0.7-1.9-1.1-2.8c-0.4-0.8-1-1.5-1.7-2.2
		c-0.8-0.6-1.7-0.9-2.7-1c-1.3,0-2.4,0.4-3.4,1s-1.9,1.4-2.6,2.4s-1.4,2-2,3.2c-0.6,1.1-1,2.2-1.4,3.3c-0.8,2.5-1.5,4.9-1.9,7.4
		s-0.7,5-1,7.6c0,0.9-0.1,2-0.1,3.1c-0.1,1.1,0,2.2,0.1,3.3c0.2,1.1,0.5,2,1,2.8s1.3,1.3,2.5,1.6c1.7,0.1,3.5,0,5.2-0.4
		s3.4-1.1,4.9-2.2c0.6-0.6,1.3-1.1,1.9-1.6s1.3-1,2-1.4c0.5-0.2,1-0.4,1.6-0.5c0.5-0.1,1-0.1,1.6-0.1c0.8-0.1,1.5,0,2,0.3
		s0.9,0.7,1.2,1.3c0.3,0.6,0.4,1.2,0.5,1.9c0.1,0.7,0,1.3-0.2,2c0,0.3,0,0.5-0.1,0.9c-0.1,0.3-0.1,0.6-0.2,0.9
		c-0.7,1.8-1.9,3.3-3.4,4.6c-1.5,1.3-3.1,2.4-4.8,3.3c-1.6,0.9-3.3,1.7-5.1,2.3c-1.8,0.6-3.6,0.9-5.4,1c-1.6,0.1-3.1-0.2-4.6-0.6
		c-1.5-0.5-2.8-1.2-4-2c-1.2-0.9-2.3-1.9-3.3-3.1s-1.8-2.4-2.5-3.8c-1.4-2.7-2.4-5.5-2.9-8.4c-0.5-3-0.7-6-0.4-9.1
		c0.3-3.7,1.1-7.4,2.3-11c1.2-3.6,2.9-7,5-10.2c0.9-1.6,2-3.1,3.3-4.6s2.7-2.8,4.2-3.9s3.2-2,5-2.7s3.6-0.9,5.5-0.9
		c2.4,0.1,4.6,0.7,6.6,1.9s3.7,2.6,5.1,4.3c0.7,0.9,1.4,1.8,2,2.7s1.2,1.9,1.6,3c0.5,1,0.8,2.1,1,3.2
		C1100.4,1001.1,1100.5,1002.2,1100.4,1003.4z"/>
	<path class="st16" d="M1146.1,1039c-0.1,0.6-0.4,1.2-0.8,1.7s-0.8,1-1.4,1.4c-0.5,0.4-1.1,0.7-1.7,1s-1.2,0.5-1.8,0.5
		c-0.7,0.2-1.4,0.1-1.9-0.1s-1-0.6-1.5-1c-0.4-0.4-0.8-1-1-1.5c-0.3-0.6-0.5-1.2-0.6-1.8c-0.4-1.9-0.6-3.7-0.7-5.3
		c-0.1-1.6-0.1-3.2,0-4.7c0.1-1.1,0.1-2.2,0.1-3.4c-0.1-1.1-0.1-2.3,0-3.4c-1.5,0.1-2.9,0.2-4.4,0.2s-3,0.1-4.5,0.1
		c-0.9,0-1.7,0-2.6,0c-0.8,0-1.7-0.1-2.6-0.1c-0.2,1.3-0.4,2.5-0.6,3.7c-0.2,1.2-0.3,2.5-0.4,3.7c-0.1,0.9-0.1,1.8,0,2.7
		c0,0.9,0,1.8,0,2.7c0.1,0.8,0.1,1.7,0,2.6c0,0.9-0.1,1.8-0.1,2.6c0,0.7-0.1,1.3-0.4,1.8s-0.7,1-1.2,1.3c-0.5,0.4-1,0.6-1.6,0.7
		s-1.2,0.1-1.8-0.1c-1.4-0.2-2.6-0.8-3.4-1.7c-0.9-0.9-1.5-1.9-2-3.2c-0.4-1.2-0.7-2.5-0.9-3.9c-0.1-1.4-0.2-2.7-0.1-3.9
		c0.1-1.5,0.2-2.9,0.4-4.3c0.2-1.4,0.4-2.9,0.6-4.3c0.3-1.5,0.6-3,0.9-4.5s0.4-3,0.6-4.5c0.1-1.4,0.2-2.8,0.3-4.2s0.1-2.8,0.1-4.2
		s0.1-2.8,0.2-4.1c0.1-1.4,0.3-2.7,0.4-4.1c0.2-1.1,0.5-2.1,0.8-3.2c0.3-1.1,0.7-2.1,1.2-3.1c0.2-0.5,0.4-1,0.7-1.5
		c0.3-0.5,0.6-1,0.9-1.5c0.4-0.5,0.8-0.8,1.2-1.2c0.4-0.3,0.9-0.5,1.5-0.6c1.5-0.3,2.8-0.1,3.7,0.5c0.9,0.6,1.6,1.5,2.1,2.7
		c0.5,1.1,0.7,2.4,0.8,3.8c0.1,1.4,0,2.6-0.2,3.7c-0.3,2.5-0.6,4.9-0.9,7.4s-0.6,4.9-1,7.4c0.9,0.1,1.8,0.2,2.7,0.2
		c0.9,0,1.8,0,2.7,0c1.1,0,2.3,0,3.4-0.1s2.3-0.2,3.4-0.3c0-0.3,0-0.5,0-0.8c0-0.2,0-0.5,0-0.8c0.1-0.5,0.1-1,0.1-1.4
		c0-0.5,0.1-0.9,0.1-1.4c0.1-0.5,0.2-1,0.3-1.4c0-0.5,0.1-0.9,0.1-1.4c0.1-1,0.1-2,0-2.9c0-0.9,0-1.9,0-2.9c-0.1-1-0.1-2,0-3
		c0-1,0.1-2,0.1-3c0-0.7,0.1-1.6,0.3-2.5c0.2-0.9,0.5-1.7,0.9-2.4s1-1.3,1.7-1.8c0.7-0.4,1.5-0.6,2.5-0.4c1.2,0.1,2.3,0.4,3.2,1
		c0.9,0.6,1.6,1.4,2.1,2.3c0.5,0.9,0.9,2,1.1,3.1s0.3,2.3,0.2,3.3c-0.1,1.1-0.1,2.3-0.2,3.4c-0.1,1.1-0.1,2.3-0.3,3.4
		c-0.1,1.2-0.1,2.3-0.2,3.5s-0.2,2.4-0.2,3.6c-0.4,4.9-0.6,9.8-0.6,14.6s-0.1,9.7-0.1,14.6L1146.1,1039z"/>
	<path class="st16" d="M1197.2,1037.1c-0.1,0.8-0.3,1.5-0.7,2.3c-0.3,0.8-0.8,1.5-1.3,2.1s-1.1,1.1-1.8,1.6
		c-0.7,0.4-1.4,0.7-2.3,0.8c-1,0.1-2,0.1-2.9,0c-1-0.2-1.7-0.7-2.3-1.5c-0.5-0.7-0.9-1.5-1.1-2.4s-0.3-1.8-0.4-2.7
		c0-1,0-2.1-0.1-3.1c-0.1-1.1-0.1-2.1-0.2-3.1c-0.6,0-1.2,0-1.8,0c-0.6,0-1.2,0-1.8,0c-0.6,0-1.3,0-1.9-0.1s-1.2-0.1-1.9,0
		c-1,0-2,0-3,0.1s-2,0.2-3,0.3c-0.5,1.4-0.9,2.7-1.4,4s-0.9,2.7-1.4,4c-0.2,0.5-0.5,1.1-0.8,1.7s-0.7,1.1-1.1,1.6s-0.9,0.9-1.4,1.2
		s-1.1,0.4-1.8,0.4c-1-0.1-1.9-0.4-2.7-0.9c-0.8-0.5-1.5-1.1-2-1.9c-0.3-0.8-0.6-1.7-0.7-2.7c-0.2-0.9-0.2-1.9-0.2-2.8
		c0.2-3.3,0.7-6.6,1.5-9.9c0.8-3.2,1.6-6.5,2.5-9.7c1-3.2,2-6.4,3.1-9.5s2.3-6.2,3.7-9.3c0.7-1.3,1.4-2.7,2.3-4.2
		c0.8-1.5,1.8-2.8,2.8-4s2.2-2.3,3.6-3.1c1.3-0.8,2.8-1.3,4.5-1.4c1.5,0,2.8,0.3,4,1c1.2,0.6,2.1,1.5,3,2.5c0.8,1,1.5,2.2,2,3.5
		s0.9,2.6,1.2,3.8c0.6,2.5,1.1,5.1,1.4,7.7c0.3,2.6,0.6,5.2,0.8,7.9c0.2,2.6,0.4,5.2,0.6,7.7s0.6,5.1,1.2,7.6
		c0.3,0.9,0.6,1.7,0.8,2.5c0.3,0.8,0.5,1.7,0.7,2.6s0.3,1.8,0.4,2.7C1197.5,1035.2,1197.4,1036.1,1197.2,1037.1z M1183.8,1019.9
		c-0.1-1.9-0.1-3.8-0.3-5.6c-0.1-1.8-0.3-3.7-0.4-5.6c-0.2-1.8-0.4-3.5-0.7-5.3c-0.3-1.8-0.8-3.4-1.6-5c-1.2,1.6-2.2,3.3-2.9,5
		c-0.8,1.8-1.5,3.6-2,5.4c-0.6,1.8-1.1,3.7-1.5,5.6c-0.4,1.9-0.8,3.7-1.1,5.6c1.8,0,3.5,0,5.2,0
		C1180.3,1020,1182,1019.9,1183.8,1019.9z"/>
</g>
<g>
	<rect y="1173" class="st0" width="1919" height="21"/>
</g>
<g>
	<rect x="623" y="1194" class="st0" width="21" height="406"/>
</g>
<g>
	<rect x="1273" y="1194" class="st0" width="21" height="406"/>
</g>
<g>
	<path class="st13" d="M2034.9,115.3V64.1h18.4c6.6,0,11.6,1.2,15,3.6s5.2,5.9,5.2,10.5c0,2.6-0.6,4.9-1.8,6.8s-3,3.3-5.4,4.1
		c2.7,0.7,4.7,2,6.2,3.9c1.4,1.9,2.1,4.3,2.1,7c0,5-1.6,8.8-4.8,11.3s-7.9,3.8-14.1,3.8h-20.8V115.3z M2047.3,85.5h6.4
		c2.7,0,4.6-0.5,5.8-1.5c1.1-1,1.7-2.4,1.7-4.3c0-2.2-0.6-3.7-1.9-4.7s-3.2-1.4-6-1.4h-6V85.5z M2047.3,93.6v12.3h8.1
		c2.2,0,3.9-0.5,5.1-1.5s1.8-2.5,1.8-4.3c0-4.3-2.1-6.4-6.4-6.4L2047.3,93.6L2047.3,93.6z"/>
	<path class="st13" d="M2121.5,64.1v33.5c0,3.8-0.8,7.1-2.4,9.9s-3.9,4.9-7,6.3c-3,1.5-6.6,2.2-10.7,2.2c-6.2,0-11.1-1.6-14.7-4.9
		s-5.4-7.7-5.5-13.3V64.1h12.4v34c0.1,5.6,2.7,8.4,7.8,8.4c2.6,0,4.5-0.7,5.8-2.1s2-3.7,2-6.9V64.1H2121.5z"/>
	<path class="st13" d="M2129.2,115.3V64.1h18.4c6.6,0,11.6,1.2,15,3.6s5.2,5.9,5.2,10.5c0,2.6-0.6,4.9-1.8,6.8s-3,3.3-5.4,4.1
		c2.7,0.7,4.7,2,6.2,3.9c1.4,1.9,2.1,4.3,2.1,7c0,5-1.6,8.8-4.8,11.3s-7.9,3.8-14.1,3.8h-20.8V115.3z M2141.6,85.5h6.4
		c2.7,0,4.6-0.5,5.8-1.5c1.1-1,1.7-2.4,1.7-4.3c0-2.2-0.6-3.7-1.9-4.7s-3.2-1.4-6-1.4h-6V85.5z M2141.6,93.6v12.3h8.1
		c2.2,0,3.9-0.5,5.1-1.5s1.8-2.5,1.8-4.3c0-4.3-2.1-6.4-6.4-6.4L2141.6,93.6L2141.6,93.6z"/>
	<path class="st13" d="M2175.7,115.3V64.1h18.4c6.6,0,11.6,1.2,15,3.6s5.2,5.9,5.2,10.5c0,2.6-0.6,4.9-1.8,6.8s-3,3.3-5.4,4.1
		c2.7,0.7,4.7,2,6.2,3.9c1.4,1.9,2.1,4.3,2.1,7c0,5-1.6,8.8-4.8,11.3s-7.9,3.8-14.1,3.8h-20.8V115.3z M2188,85.5h6.4
		c2.7,0,4.6-0.5,5.8-1.5c1.1-1,1.7-2.4,1.7-4.3c0-2.2-0.6-3.7-1.9-4.7s-3.2-1.4-6-1.4h-6V85.5z M2188,93.6v12.3h8.1
		c2.2,0,3.9-0.5,5.1-1.5s1.8-2.5,1.8-4.3c0-4.3-2.1-6.4-6.4-6.4L2188,93.6L2188,93.6z"/>
	<path class="st13" d="M2234.4,105.8h21.5v9.5h-33.8V64.1h12.3V105.8z"/>
	<path class="st13" d="M2292.9,93.6h-19.4v12.2h22.9v9.5h-35.3V64.1h35.3v9.5h-23v10.8h19.4v9.2H2292.9z"/>
	<path class="st13" d="M2357.4,73.7H2342v41.7h-12.3V73.7h-15.1v-9.5h42.8V73.7z"/>
	<path class="st13" d="M2394.4,93.6H2375v12.2h22.9v9.5h-35.3V64.1h35.3v9.5h-23v10.8h19.4v9.2H2394.4z"/>
	<path class="st13" d="M2432,105.8h-16.9l-3,9.6h-13.2l18.8-51.2h11.6l18.9,51.2H2435L2432,105.8z M2418,96.2h11l-5.5-17.8
		L2418,96.2z"/>
	<path class="st13" d="M2078.8,195.4c-1.9,2.1-4.7,3.8-8.3,5.1s-7.7,1.9-12,1.9c-6.7,0-12.1-2.1-16.1-6.2c-4-4.1-6.2-9.8-6.4-17.1
		v-4.4c0-5,0.9-9.4,2.7-13.2s4.3-6.7,7.6-8.7s7.2-3,11.5-3c6.4,0,11.3,1.5,14.9,4.4s5.6,7.3,6.2,13.1H2067c-0.4-2.9-1.3-4.9-2.7-6.1
		c-1.4-1.2-3.4-1.8-6-1.8c-3.1,0-5.5,1.3-7.2,3.9c-1.7,2.6-2.5,6.4-2.6,11.2v3.1c0,5.1,0.9,8.9,2.6,11.5s4.5,3.8,8.2,3.8
		c3.2,0,5.6-0.7,7.2-2.1v-7.9h-8.6v-8.5h20.9L2078.8,195.4L2078.8,195.4z"/>
	<path class="st13" d="M2117.7,180h-19.4v12.2h22.9v9.5H2086v-51.2h35.3v9.5h-23v10.8h19.4V180z"/>
	<path class="st13" d="M2169,201.7h-12.3l-18.1-31.9v31.9h-12.3v-51.2h12.3l18.1,31.9v-31.9h12.3V201.7z"/>
	<path class="st13" d="M2208.6,180h-19.4v12.2h22.9v9.5h-35.3v-51.2h35.3v9.5h-23v10.8h19.4v9.2H2208.6z"/>
	<path class="st13" d="M2236.1,183.6h-6.7v18.1h-12.3v-51.2h20.1c6.1,0,10.8,1.3,14.2,4s5.1,6.5,5.1,11.4c0,3.6-0.7,6.5-2.2,8.9
		s-3.7,4.2-6.8,5.7l10.7,20.7v0.5H2245L2236.1,183.6z M2229.5,174.1h7.8c2.3,0,4.1-0.6,5.3-1.9s1.8-3,1.8-5.2s-0.6-3.9-1.8-5.2
		s-3-1.9-5.3-1.9h-7.8V174.1z"/>
	<path class="st13" d="M2293.2,192.2h-16.9l-3,9.6h-13.2l18.8-51.2h11.6l18.9,51.2h-13.3L2293.2,192.2z M2279.2,182.6h11l-5.5-17.8
		L2279.2,182.6z"/>
	<path class="st13" d="M2349.1,160.1h-15.4v41.7h-12.3v-41.7h-15.1v-9.5h42.8V160.1z"/>
	<path class="st13" d="M2396.7,177.2c0,5-0.9,9.4-2.8,13.3c-1.9,3.8-4.5,6.8-7.9,8.9s-7.3,3.1-11.7,3.1s-8.2-1-11.6-3
		s-6-4.9-7.9-8.6s-2.9-8-3-12.8v-2.9c0-5,0.9-9.4,2.8-13.3s4.5-6.8,7.9-8.9c3.4-2.1,7.3-3.1,11.7-3.1c4.3,0,8.2,1,11.6,3.1
		c3.4,2.1,6,5,7.9,8.8s2.8,8.2,2.9,13.1v2.3H2396.7z M2384.1,175c0-5.1-0.8-8.9-2.5-11.6s-4.1-4-7.3-4c-6.2,0-9.5,4.6-9.8,13.9v3.8
		c0,5,0.8,8.9,2.5,11.6c1.7,2.7,4.1,4,7.4,4c3.1,0,5.5-1.3,7.2-4c1.7-2.6,2.5-6.5,2.6-11.4L2384.1,175L2384.1,175z"/>
	<path class="st13" d="M2422,183.6h-6.7v18.1H2403v-51.2h20.1c6.1,0,10.8,1.3,14.2,4s5.1,6.5,5.1,11.4c0,3.6-0.7,6.5-2.2,8.9
		s-3.7,4.2-6.8,5.7l10.7,20.7v0.5h-13.2L2422,183.6z M2415.4,174.1h7.8c2.3,0,4.1-0.6,5.3-1.9s1.8-3,1.8-5.2s-0.6-3.9-1.8-5.2
		s-3-1.9-5.3-1.9h-7.8V174.1z"/>
</g>
</svg>
